<svg xmlns="http://www.w3.org/2000/svg" xmlns:xlink="http://www.w3.org/1999/xlink" width="100" zoomAndPan="magnify" viewBox="0 0 75 74.999997" height="100" preserveAspectRatio="xMidYMid meet" version="1.0"><defs><clipPath id="id1"><path d="M 8.476562 7.5 L 63.976562 7.5 L 63.976562 69 L 8.476562 69 Z M 8.476562 7.5 " clip-rule="nonzero"/></clipPath></defs><g clip-path="url(#id1)"><path fill="#ff914d" d="M 19.191406 9.601562 C 19.355469 9.617188 19.554688 9.519531 19.621094 9.535156 C 19.6875 9.554688 19.933594 9.570312 20.101562 9.585938 C 20.265625 9.601562 20.367188 9.503906 20.367188 9.503906 C 20.367188 9.503906 20.515625 9.617188 20.648438 9.683594 C 20.78125 9.75 21.308594 9.683594 21.507812 9.570312 C 21.707031 9.453125 21.875 9.175781 21.957031 9.09375 C 22.039062 9.011719 22.335938 9.011719 22.335938 9.011719 L 22.550781 8.914062 C 22.683594 8.976562 22.734375 8.914062 22.851562 8.796875 C 22.964844 8.683594 23.117188 8.632812 23.214844 8.601562 C 23.316406 8.566406 23.28125 8.519531 23.597656 8.355469 C 23.910156 8.191406 24.921875 8.191406 24.921875 8.191406 L 25.1875 8.007812 C 25.1875 8.007812 25.386719 8.042969 25.519531 8.042969 C 25.652344 8.042969 25.867188 7.941406 25.867188 7.941406 L 26.710938 7.960938 L 26.910156 8.089844 L 27.125 8.125 C 27.125 8.125 27.273438 8.007812 27.472656 7.941406 C 27.671875 7.878906 27.789062 7.695312 27.789062 7.695312 C 27.789062 7.695312 28.300781 7.894531 28.402344 7.878906 C 28.5 7.859375 28.582031 7.714844 28.582031 7.714844 L 28.796875 7.796875 L 29.046875 7.910156 L 29.296875 7.828125 C 29.296875 7.828125 29.410156 7.84375 29.527344 7.878906 C 29.644531 7.910156 29.792969 7.828125 29.792969 7.828125 C 30.007812 7.613281 30.4375 7.5 30.570312 7.5 C 30.703125 7.5 30.886719 7.597656 30.886719 7.597656 C 30.867188 7.695312 31.035156 7.859375 31.035156 7.859375 L 30.984375 7.960938 L 31.117188 8.027344 L 31.183594 7.992188 C 31.183594 7.992188 31.265625 7.925781 31.332031 7.910156 C 31.398438 7.894531 31.433594 7.84375 31.433594 7.761719 C 31.433594 7.679688 31.546875 7.777344 31.546875 7.777344 L 31.644531 7.925781 L 31.5625 8.140625 C 31.5625 8.140625 31.460938 8.253906 31.28125 8.386719 C 31.097656 8.519531 31.160156 8.847656 31.226562 8.960938 C 31.292969 9.078125 31.386719 8.976562 31.386719 8.976562 L 31.421875 9.058594 L 31.53125 9.257812 C 31.53125 9.257812 31.53125 9.242188 31.53125 9.339844 C 31.53125 9.4375 31.621094 9.636719 31.621094 9.636719 C 31.621094 9.636719 31.433594 9.945312 31.332031 10.09375 C 31.234375 10.242188 30.835938 10.472656 30.835938 10.472656 L 30.800781 10.667969 L 30.621094 10.652344 L 30.667969 10.949219 C 30.667969 10.949219 30.800781 11.082031 30.917969 11.097656 C 31.035156 11.113281 31.101562 11.082031 31.101562 11.082031 L 31.214844 11.226562 L 31.398438 11.179688 L 31.53125 11.492188 L 31.796875 11.539062 C 31.796875 11.539062 32.523438 11.902344 32.707031 11.917969 C 32.890625 11.933594 32.988281 11.820312 33.1875 11.804688 C 33.386719 11.785156 33.417969 11.886719 33.519531 11.917969 C 33.617188 11.949219 33.75 11.886719 33.867188 11.96875 C 33.984375 12.050781 34.496094 12.230469 34.777344 12.363281 C 35.058594 12.492188 34.960938 12.855469 34.960938 12.855469 C 34.960938 12.855469 35.359375 13.265625 35.523438 13.347656 C 35.6875 13.429688 36.335938 13.476562 36.484375 13.511719 C 36.632812 13.542969 37.03125 13.757812 37.03125 13.757812 L 37.261719 13.824219 C 37.261719 13.824219 37.429688 14.003906 37.527344 14.085938 C 37.628906 14.167969 37.808594 14.28125 38.042969 14.265625 C 38.273438 14.25 38.589844 13.890625 38.6875 13.757812 C 38.785156 13.625 38.785156 13.511719 38.71875 13.378906 C 38.65625 13.25 38.65625 13.148438 38.621094 13.035156 C 38.589844 12.917969 38.65625 12.527344 38.804688 12.410156 C 38.953125 12.296875 39.367188 11.949219 39.550781 11.902344 C 39.730469 11.851562 39.898438 11.820312 39.898438 11.820312 C 39.898438 11.820312 40.328125 11.785156 40.609375 11.902344 C 40.890625 12.015625 40.988281 11.96875 40.988281 11.96875 L 41.121094 12.113281 L 41.121094 12.3125 C 41.121094 12.3125 41.222656 12.445312 41.320312 12.476562 C 41.421875 12.507812 41.753906 12.542969 41.882812 12.609375 C 42.015625 12.671875 42.199219 12.671875 42.398438 12.722656 C 42.597656 12.773438 42.746094 12.789062 42.746094 12.789062 C 42.863281 13.035156 42.945312 13.085938 43.128906 13.050781 C 43.308594 13.019531 44.089844 13.085938 44.304688 13.132812 C 44.519531 13.183594 45 13.449219 45.28125 13.5625 C 45.5625 13.675781 45.992188 13.796875 45.992188 13.796875 L 46.640625 13.390625 C 46.640625 13.390625 46.855469 13.285156 47.035156 13.234375 C 47.21875 13.183594 47.667969 13.1875 47.667969 13.1875 C 47.667969 13.1875 47.914062 13.1875 48.097656 13.1875 C 48.277344 13.1875 48.394531 13.109375 48.394531 13.109375 C 48.394531 13.109375 48.394531 13.082031 48.460938 13.199219 C 48.527344 13.3125 48.710938 13.414062 48.710938 13.414062 L 48.875 13.527344 C 48.875 13.527344 49.4375 13.578125 49.585938 13.558594 C 49.738281 13.542969 50.132812 13.332031 50.132812 13.332031 L 50.746094 15.167969 C 50.746094 15.167969 50.484375 15.828125 50.433594 15.992188 C 50.382812 16.15625 50.433594 16.285156 50.285156 16.46875 C 50.132812 16.648438 49.785156 16.15625 49.738281 16.121094 C 49.6875 16.089844 49.421875 15.84375 49.421875 15.613281 C 49.421875 15.382812 49.089844 15.039062 49.089844 15.039062 C 49.089844 15.039062 48.941406 14.464844 48.875 14.496094 C 48.808594 14.527344 48.84375 14.609375 48.84375 14.609375 L 48.792969 14.890625 C 48.792969 14.890625 48.890625 15.054688 48.941406 15.1875 C 48.992188 15.316406 49.007812 15.613281 49.15625 15.859375 C 49.304688 16.105469 49.652344 16.402344 49.652344 16.402344 C 49.652344 16.402344 49.652344 16.597656 49.703125 16.761719 C 49.753906 16.925781 49.886719 16.992188 49.96875 17.355469 C 50.050781 17.714844 50.417969 18.324219 50.417969 18.324219 C 50.417969 18.324219 50.832031 19.144531 50.863281 19.226562 C 50.898438 19.308594 51.226562 19.933594 51.226562 19.933594 C 51.226562 19.933594 51.226562 20.226562 51.277344 20.472656 C 51.328125 20.722656 51.574219 20.886719 51.574219 20.886719 C 51.574219 20.886719 51.890625 21.082031 52.140625 21.3125 C 52.386719 21.542969 52.355469 21.835938 52.386719 21.96875 C 52.421875 22.101562 52.667969 22.332031 52.667969 22.332031 C 52.667969 22.332031 52.652344 23.382812 52.667969 23.859375 C 52.6875 24.332031 52.96875 24.351562 53.199219 24.433594 C 53.429688 24.515625 53.449219 24.726562 53.449219 24.726562 L 53.613281 24.761719 L 53.695312 24.878906 L 53.945312 25.273438 L 54.011719 25.605469 C 54.011719 25.605469 54.09375 26.070312 54.160156 26.414062 C 54.226562 26.757812 54.410156 26.816406 54.410156 26.816406 L 54.425781 27.019531 L 54.574219 27.019531 L 54.671875 27.34375 L 54.773438 27.289062 L 54.722656 27.140625 L 54.789062 27.058594 L 54.957031 27.140625 C 54.957031 27.140625 54.921875 27.222656 55.003906 27.40625 C 55.085938 27.585938 55.21875 27.4375 55.269531 27.453125 C 55.320312 27.472656 55.453125 27.636719 55.519531 27.683594 C 55.585938 27.734375 55.882812 27.800781 55.882812 27.800781 L 56.3125 28.359375 L 56.496094 28.375 L 56.546875 28.554688 L 56.695312 28.621094 C 56.695312 28.621094 56.777344 28.769531 56.84375 28.898438 C 56.910156 29.03125 57.074219 29.03125 57.074219 29.03125 C 57.140625 29.226562 57.339844 29.195312 57.339844 29.195312 L 57.570312 29.605469 L 57.605469 29.867188 C 57.605469 29.867188 57.457031 29.917969 57.375 29.96875 C 57.289062 30.015625 57.273438 30.082031 57.191406 30.097656 C 57.109375 30.113281 57.007812 30.277344 57.007812 30.277344 L 57.457031 30.246094 C 57.457031 30.246094 57.835938 30.65625 58.003906 30.835938 C 58.167969 31.019531 58.484375 31.214844 58.484375 31.214844 L 58.929688 31.199219 C 58.929688 31.199219 59.113281 31.066406 59.261719 31 C 59.410156 30.9375 59.527344 30.804688 59.527344 30.804688 C 59.527344 30.804688 59.675781 30.855469 59.777344 30.886719 C 59.875 30.917969 60.007812 30.96875 60.222656 30.953125 C 60.4375 30.9375 60.40625 30.789062 60.488281 30.773438 C 60.570312 30.753906 60.671875 30.65625 60.671875 30.65625 C 60.671875 30.65625 60.96875 30.574219 61.101562 30.625 C 61.234375 30.671875 61.199219 30.609375 61.398438 30.609375 C 61.597656 30.609375 61.664062 30.507812 61.730469 30.460938 C 61.796875 30.410156 62.027344 30.542969 62.027344 30.542969 C 62.027344 30.542969 62.261719 30.445312 62.375 30.394531 C 62.492188 30.34375 62.757812 30.328125 62.921875 30.277344 C 63.089844 30.230469 63.304688 30.097656 63.304688 30.097656 C 63.304688 30.097656 63.355469 29.984375 63.488281 29.949219 C 63.617188 29.917969 63.785156 30.066406 63.785156 30.066406 L 63.933594 30.097656 L 63.882812 30.261719 C 63.835938 30.34375 63.800781 30.527344 63.800781 30.527344 L 63.902344 30.738281 L 63.867188 31.035156 L 63.703125 31.3125 L 63.519531 32.265625 L 63.222656 32.628906 C 63.222656 32.628906 63.074219 32.890625 62.90625 33.070312 C 62.742188 33.25 62.757812 33.53125 62.660156 33.710938 C 62.558594 33.890625 62.261719 34.433594 62.195312 34.730469 C 62.128906 35.027344 62.046875 35.007812 61.828125 35.191406 C 61.613281 35.371094 61.449219 35.667969 61.265625 36.011719 C 61.085938 36.355469 60.820312 36.503906 60.671875 36.636719 C 60.519531 36.765625 60.039062 37.242188 60.039062 37.242188 L 59.644531 37.734375 L 58.929688 38 C 58.929688 38 57.488281 39.296875 57.308594 39.492188 C 57.125 39.691406 57.007812 39.589844 57.007812 39.589844 L 56.976562 39.789062 L 56.113281 40.871094 C 56.113281 40.871094 55.980469 40.921875 55.816406 40.988281 C 55.652344 41.054688 55.585938 41.347656 55.585938 41.347656 L 55.253906 41.628906 L 55.070312 42.039062 C 55.070312 42.039062 54.757812 42.710938 54.738281 42.761719 C 54.722656 42.808594 54.410156 43.089844 54.410156 43.089844 C 54.410156 43.089844 54.324219 43.5 54.175781 43.84375 C 54.027344 44.191406 54.042969 44.519531 54.042969 44.519531 C 54.042969 44.519531 54.226562 44.585938 54.34375 44.765625 C 54.457031 44.945312 54.609375 45.140625 54.609375 45.140625 C 54.609375 45.140625 54.542969 45.191406 54.492188 45.40625 C 54.441406 45.617188 54.558594 45.898438 54.441406 45.964844 C 54.324219 46.027344 54.523438 46.339844 54.542969 46.472656 C 54.558594 46.605469 54.671875 46.851562 54.738281 47.015625 C 54.804688 47.179688 54.890625 47.476562 54.890625 47.476562 L 55.351562 47.753906 L 55.4375 47.9375 C 55.4375 47.9375 55.4375 48.378906 55.320312 48.578125 C 55.203125 48.773438 55.203125 49.515625 55.203125 49.515625 L 55.238281 50.851562 L 55.453125 51.125 L 55.1875 51.71875 L 55.285156 51.71875 L 55.269531 51.886719 L 55.171875 51.910156 L 54.855469 52.367188 L 54.640625 52.484375 L 54.65625 52.664062 C 54.65625 52.664062 54.210938 52.992188 54.160156 53.027344 C 54.109375 53.058594 54.109375 53.109375 54.0625 53.171875 C 54.011719 53.238281 53.761719 53.289062 53.695312 53.289062 C 53.628906 53.289062 53.265625 53.453125 52.867188 53.617188 C 52.472656 53.78125 52.304688 54.125 52.304688 54.125 L 52.089844 54.175781 L 52.15625 54.339844 L 51.839844 54.699219 L 51.675781 54.519531 L 51.609375 54.765625 C 51.609375 54.765625 51.527344 54.832031 51.476562 54.847656 C 51.425781 54.867188 51.113281 55.292969 51.011719 55.339844 C 50.914062 55.390625 50.78125 55.539062 50.78125 55.539062 L 50.566406 55.636719 L 50.582031 56.164062 L 50.847656 56.492188 C 50.847656 56.492188 50.847656 56.492188 50.878906 56.65625 C 50.914062 56.820312 51.097656 57.230469 51.097656 57.230469 L 51.128906 57.542969 L 51.179688 57.425781 L 51.246094 57.507812 C 51.246094 57.507812 51.246094 58.3125 51.128906 58.578125 C 51.011719 58.839844 51.046875 59.183594 51.046875 59.183594 C 51.046875 59.183594 51.113281 59.019531 51.179688 58.953125 C 51.246094 58.890625 51.0625 59.363281 50.945312 59.578125 C 50.832031 59.792969 50.398438 59.875 50.265625 59.90625 C 50.136719 59.941406 49.886719 59.941406 49.703125 60.121094 C 49.523438 60.300781 49.242188 60.351562 49.140625 60.433594 C 49.042969 60.515625 48.875 60.84375 48.875 60.84375 L 49.058594 61.023438 L 49.15625 60.941406 C 49.15625 60.941406 49.125 61.351562 49.140625 61.515625 C 49.15625 61.679688 49.007812 61.945312 49.007812 61.945312 C 49.007812 61.945312 48.941406 62.4375 48.925781 62.535156 C 48.910156 62.632812 48.777344 62.894531 48.777344 63.042969 C 48.777344 63.191406 48.578125 63.257812 48.476562 63.339844 C 48.378906 63.421875 48.128906 63.554688 48.128906 63.554688 L 47.550781 64.457031 L 46.90625 65.457031 L 46.390625 65.96875 L 45.878906 66.671875 C 45.878906 66.671875 45.148438 67.347656 44.71875 67.675781 C 44.289062 68.003906 43.921875 67.953125 43.707031 67.9375 C 43.492188 67.921875 43.34375 68.035156 43.34375 68.035156 L 43.375 68.28125 C 43.375 68.28125 43.0625 68.234375 42.914062 68.199219 C 42.761719 68.167969 42.8125 68.265625 42.664062 68.382812 C 42.515625 68.496094 41.6875 68.21875 41.585938 68.21875 C 41.488281 68.21875 41.636719 68.363281 41.238281 68.316406 C 40.839844 68.265625 40.578125 68.28125 40.578125 68.28125 L 40.277344 68.464844 L 40.164062 68.59375 L 39.550781 68.578125 L 39.351562 68.628906 L 39.070312 68.742188 C 39.070312 68.742188 39.070312 68.742188 38.917969 68.875 C 38.769531 69.003906 38.4375 68.808594 38.4375 68.808594 L 38.242188 68.773438 L 38.15625 68.609375 L 37.792969 68.546875 C 37.792969 68.546875 37.859375 68.332031 37.695312 68.300781 C 37.527344 68.265625 37.5625 68.578125 37.5625 68.578125 C 37.5625 68.578125 37.394531 68.234375 37.460938 68.167969 C 37.527344 68.101562 37.496094 67.9375 37.496094 67.9375 L 37.347656 67.707031 L 37.148438 67.476562 C 37.261719 67.429688 37.015625 67.183594 37.015625 67.183594 L 37.082031 66.96875 L 37.28125 67.035156 L 37.414062 66.855469 L 37.3125 66.148438 C 37.3125 66.148438 36.949219 65.636719 36.882812 65.472656 C 36.816406 65.308594 36.75 65.144531 36.699219 65.082031 C 36.648438 65.015625 36.5 64.605469 36.5 64.554688 C 36.5 64.503906 36.152344 63.652344 36.152344 63.652344 L 35.972656 63.371094 C 35.9375 63.207031 35.839844 63.207031 35.839844 63.207031 L 35.324219 62.730469 C 35.242188 62.550781 34.910156 62.089844 34.910156 62.089844 C 34.910156 62.089844 34.828125 61.613281 34.792969 61.449219 C 34.761719 61.285156 34.679688 61.1875 34.679688 61.054688 C 34.679688 60.925781 34.59375 60.695312 34.59375 60.695312 C 34.59375 60.695312 34.613281 60.105469 34.414062 59.59375 C 34.214844 59.085938 34.261719 58.496094 34.28125 58.085938 C 34.296875 57.671875 34.097656 57.527344 33.964844 57.34375 C 33.832031 57.164062 33.3125 56.164062 33.3125 56.164062 C 33.3125 56.164062 32.644531 54.964844 32.5625 54.816406 C 32.480469 54.667969 32.335938 54.570312 32.335938 54.570312 L 32.03125 54.160156 L 32.03125 53.914062 L 31.988281 52.894531 L 32.09375 52.863281 L 32.0625 52.285156 L 32.175781 52.140625 L 32.375 51.5625 C 32.375 51.5625 32.523438 51.054688 32.640625 50.59375 C 32.757812 50.136719 32.855469 50.085938 32.957031 50.003906 C 33.054688 49.921875 33.023438 49.707031 33.023438 49.707031 C 33.023438 49.707031 33.203125 49.644531 33.355469 49.5625 C 33.503906 49.476562 33.703125 49.035156 33.71875 48.804688 C 33.734375 48.574219 33.683594 48.296875 33.769531 48.230469 C 33.851562 48.164062 33.785156 47.933594 33.683594 47.851562 C 33.585938 47.769531 33.503906 47.621094 33.402344 47.425781 C 33.304688 47.226562 33.222656 46.800781 33.222656 46.703125 C 33.222656 46.605469 33.402344 46.472656 33.402344 46.472656 L 33.355469 46.011719 C 33.355469 46.011719 33.253906 45.882812 33.171875 45.734375 C 33.089844 45.585938 33.089844 45.175781 33.089844 45.175781 C 33.089844 45.175781 33.089844 45.175781 32.855469 44.914062 C 32.625 44.648438 32.625 44.421875 32.625 44.421875 L 32.574219 44.109375 C 32.523438 44.058594 32.457031 43.945312 32.441406 43.84375 C 32.425781 43.746094 32.394531 43.535156 32.34375 43.433594 C 32.292969 43.335938 32.128906 43.089844 31.996094 42.957031 C 31.863281 42.828125 31.878906 42.828125 31.828125 42.746094 C 31.78125 42.664062 31.664062 42.628906 31.664062 42.628906 C 31.664062 42.628906 31.414062 42.367188 31.332031 42.234375 C 31.25 42.105469 30.703125 41.660156 30.570312 41.480469 C 30.4375 41.300781 30.105469 41.054688 30.105469 41.054688 L 29.710938 40.085938 C 29.710938 40.085938 29.925781 39.953125 30.058594 39.839844 C 30.1875 39.722656 30.140625 39.625 30.140625 39.429688 C 30.140625 39.230469 30.1875 39.28125 30.355469 39.378906 C 30.519531 39.476562 30.605469 39.328125 30.605469 39.328125 C 30.605469 39.328125 30.519531 39.296875 30.386719 39.230469 C 30.253906 39.164062 30.171875 38.984375 30.171875 38.984375 L 30.339844 38.902344 C 30.304688 38.789062 30.386719 38.625 30.386719 38.625 L 30.207031 38.410156 C 30.207031 38.410156 30.503906 37.804688 30.488281 37.640625 C 30.472656 37.472656 30.652344 36.949219 30.652344 36.949219 L 30.453125 36.640625 L 30.253906 36.296875 L 29.890625 36.207031 L 29.742188 35.910156 L 29.539062 35.910156 L 29.539062 35.714844 L 29.34375 35.570312 L 29.246094 35.929688 C 29.246094 35.929688 28.75 35.898438 28.699219 35.898438 C 28.648438 35.898438 28.433594 35.796875 28.382812 35.816406 C 28.332031 35.832031 28.316406 35.929688 28.316406 35.929688 L 28.003906 36.042969 L 27.6875 36.128906 L 27.621094 35.980469 L 27.4375 36.011719 L 27.289062 35.898438 C 27.289062 35.898438 27.042969 35.671875 27.007812 35.507812 C 26.976562 35.34375 27.023438 35.171875 27.023438 35.171875 L 26.894531 35.171875 C 26.894531 35.171875 26.792969 34.976562 26.710938 34.8125 C 26.628906 34.648438 26.363281 34.515625 26.164062 34.433594 C 25.964844 34.351562 25.203125 34.417969 24.773438 34.46875 C 24.339844 34.515625 23.695312 34.683594 23.695312 34.683594 L 23.496094 34.929688 C 23.496094 34.929688 23.398438 34.929688 23.332031 34.894531 C 23.265625 34.863281 23.066406 34.960938 22.933594 34.960938 C 22.800781 34.960938 22.304688 35.238281 22.203125 35.304688 C 22.105469 35.371094 21.640625 35.402344 21.558594 35.488281 C 21.476562 35.570312 21.128906 35.75 21.128906 35.75 C 21.128906 35.75 20.332031 35.503906 20.214844 35.488281 C 20.101562 35.46875 19.785156 35.371094 19.519531 35.320312 C 19.257812 35.273438 18.128906 35.519531 17.816406 35.585938 C 17.5 35.652344 16.835938 36.027344 16.835938 36.027344 L 16.523438 35.945312 C 16.523438 35.945312 16.324219 35.945312 16.273438 35.878906 C 16.222656 35.816406 16.15625 35.847656 16.027344 35.816406 C 15.894531 35.78125 15.609375 35.652344 15.546875 35.585938 C 15.480469 35.519531 15.214844 35.386719 15.214844 35.386719 C 15.214844 35.386719 14.980469 35.175781 14.78125 34.992188 C 14.585938 34.8125 14.300781 34.582031 14.300781 34.582031 C 14.300781 34.582031 14.039062 34.484375 13.972656 34.453125 C 13.90625 34.417969 13.804688 34.222656 13.804688 34.222656 L 13.691406 34.105469 C 13.691406 34.105469 13.691406 34.105469 13.640625 34.058594 C 13.589844 34.007812 13.425781 33.894531 13.425781 33.894531 L 12.710938 33.546875 C 12.679688 33.382812 12.316406 33.203125 12.316406 33.203125 C 12.28125 33.070312 12.214844 32.988281 12.132812 32.957031 C 12.050781 32.925781 12.050781 32.777344 12.050781 32.777344 L 12.164062 32.710938 L 12.066406 32.660156 C 12.066406 32.660156 12.066406 32.660156 12.050781 32.53125 C 12.03125 32.398438 11.964844 32.347656 11.964844 32.347656 L 12.015625 32.203125 C 12.015625 32.203125 11.917969 32.070312 11.800781 31.957031 C 11.683594 31.839844 11.652344 31.890625 11.652344 31.890625 C 11.652344 31.890625 11.652344 31.808594 11.550781 31.660156 C 11.453125 31.511719 11.171875 31.414062 11.070312 31.332031 C 10.972656 31.25 11.039062 30.9375 10.921875 30.921875 C 10.808594 30.902344 10.875 30.789062 10.808594 30.738281 C 10.742188 30.691406 10.742188 30.871094 10.640625 30.886719 C 10.542969 30.902344 10.507812 30.609375 10.507812 30.609375 C 10.507812 30.609375 10.507812 30.609375 10.359375 30.558594 C 10.210938 30.511719 10.328125 30.347656 10.328125 30.347656 L 10.257812 30.117188 C 10.257812 30.117188 10.390625 30.082031 10.457031 30.082031 C 10.523438 30.082031 10.753906 30.015625 10.753906 30.015625 L 10.71875 29.917969 C 10.71875 29.917969 10.382812 29.953125 10.164062 30.035156 C 9.949219 30.117188 9.855469 30.082031 9.855469 30.082031 L 9.855469 30 C 9.855469 30 9.734375 29.96875 9.621094 29.933594 C 9.503906 29.902344 9.546875 29.789062 9.546875 29.789062 C 9.546875 29.789062 9.546875 29.789062 9.28125 29.65625 C 9.019531 29.523438 9.199219 29.292969 9.199219 29.128906 C 9.199219 28.964844 9.132812 28.800781 9.132812 28.800781 C 9.132812 28.800781 9.234375 28.6875 9.316406 28.605469 C 9.398438 28.523438 9.214844 28.34375 9.214844 28.34375 L 9.183594 28.144531 C 9.183594 28.144531 9.066406 27.996094 8.96875 27.898438 C 8.867188 27.800781 8.769531 27.652344 8.769531 27.652344 L 8.621094 27.703125 L 8.519531 27.617188 C 8.753906 27.585938 9.066406 27.273438 9.132812 27.175781 C 9.199219 27.078125 9.316406 26.894531 9.316406 26.894531 C 9.316406 26.894531 9.398438 26.847656 9.382812 26.683594 C 9.367188 26.519531 9.449219 26.207031 9.546875 25.925781 C 9.648438 25.648438 9.765625 25.152344 9.796875 24.660156 C 9.828125 24.167969 9.679688 24.050781 9.546875 23.902344 C 9.414062 23.757812 9.449219 23.738281 9.449219 23.738281 C 9.449219 23.738281 9.515625 23.730469 9.546875 23.683594 C 9.582031 23.632812 9.648438 23.144531 9.648438 22.996094 C 9.648438 22.851562 9.53125 22.695312 9.53125 22.695312 L 9.367188 22.695312 L 9.199219 22.367188 L 9.035156 22.363281 L 9.085938 21.753906 C 9.085938 21.753906 9.21875 21.425781 9.25 21.359375 C 9.285156 21.296875 9.464844 21.261719 9.464844 21.261719 L 9.746094 20.703125 L 9.679688 20.539062 C 9.679688 20.539062 9.796875 20.425781 9.929688 20.261719 C 10.0625 20.097656 10.074219 19.886719 10.140625 19.824219 C 10.207031 19.757812 10.425781 19.515625 10.535156 19.339844 C 10.648438 19.164062 10.824219 18.925781 10.824219 18.925781 C 10.824219 18.925781 10.800781 18.75 10.867188 18.597656 C 10.933594 18.445312 11.023438 18.136719 11.089844 18.003906 C 11.15625 17.875 11.375 17.699219 11.507812 17.65625 C 11.640625 17.609375 11.839844 17.390625 11.839844 17.390625 C 11.839844 17.390625 11.90625 17.238281 11.996094 17.019531 C 12.082031 16.800781 12.265625 16.5 12.265625 16.5 L 12.347656 16.386719 C 12.5625 16.367188 13.375 16.15625 13.558594 15.957031 C 13.738281 15.761719 14.039062 15.582031 14.152344 15.515625 C 14.269531 15.449219 14.335938 15.351562 14.367188 15.300781 C 14.402344 15.25 14.5 15.25 14.601562 15.085938 C 14.699219 14.921875 14.914062 14.511719 14.914062 14.511719 L 14.929688 14.167969 L 14.796875 13.855469 C 14.796875 13.855469 14.796875 13.445312 14.8125 13.296875 C 14.828125 13.148438 14.941406 13.066406 15.039062 12.9375 C 15.136719 12.804688 15.113281 12.707031 15.113281 12.707031 L 15.242188 12.65625 L 15.335938 12.3125 L 15.335938 12.082031 C 15.335938 12.082031 15.839844 11.558594 15.90625 11.492188 C 15.972656 11.425781 16.457031 11.246094 16.804688 11.082031 C 17.152344 10.917969 17.300781 10.675781 17.367188 10.542969 C 17.433594 10.410156 17.53125 10.351562 17.628906 10.234375 C 17.730469 10.121094 17.777344 9.765625 17.828125 9.601562 C 17.878906 9.4375 18.003906 9.125 18.054688 9.058594 C 18.105469 8.996094 18.394531 9.011719 18.394531 9.011719 C 18.527344 9.273438 19.023438 9.585938 19.191406 9.601562 Z M 58.203125 53.984375 C 58.351562 54.230469 58.304688 54.726562 58.5 55.121094 C 58.699219 55.511719 58.304688 55.660156 58.152344 55.90625 C 58.003906 56.152344 57.804688 56.597656 57.605469 56.992188 C 57.410156 57.386719 57.457031 57.976562 57.605469 58.125 C 57.757812 58.273438 57.757812 58.667969 57.855469 59.011719 C 57.953125 59.355469 58.003906 59.75 58.203125 60.09375 C 58.402344 60.441406 58.601562 60.339844 58.949219 60.488281 C 59.296875 60.636719 59.296875 60.339844 59.695312 60.292969 C 60.089844 60.242188 60.089844 60.195312 60.339844 60.09375 C 60.589844 59.996094 60.738281 59.601562 60.789062 59.257812 C 60.835938 58.914062 61.234375 57.828125 61.382812 57.335938 C 61.53125 56.84375 62.078125 55.316406 62.128906 55.019531 C 62.179688 54.726562 62.476562 53.738281 62.378906 53.492188 C 62.277344 53.246094 62.625 53.050781 62.726562 52.851562 C 62.824219 52.65625 62.675781 52.261719 62.675781 51.917969 C 62.675781 51.570312 63.023438 52.261719 63.023438 52.261719 C 63.023438 52.261719 63.171875 51.570312 63.074219 51.226562 C 62.972656 50.882812 63.023438 50.636719 62.824219 50.191406 C 62.625 49.75 62.277344 49.257812 62.277344 49.257812 L 61.980469 49.355469 C 61.980469 49.355469 61.929688 49.652344 61.980469 49.847656 C 62.03125 50.042969 61.683594 50.144531 61.582031 50.289062 C 61.484375 50.4375 61.183594 50.339844 61.183594 50.339844 L 61.136719 50.832031 L 61.085938 51.175781 L 60.6875 51.523438 L 60.539062 51.917969 C 60.539062 51.917969 60.289062 51.816406 60.09375 51.867188 C 59.894531 51.917969 60.140625 52.410156 60.140625 52.410156 L 59.742188 52.164062 L 59.445312 52.066406 L 59.199219 52.410156 L 58.949219 52.359375 L 58.402344 52.507812 L 58.351562 53 L 57.90625 53.542969 C 57.90625 53.542969 58.054688 53.738281 58.203125 53.984375 Z M 58.203125 53.984375 " fill-opacity="1" fill-rule="nonzero"/></g></svg>