<svg xmlns="http://www.w3.org/2000/svg" xmlns:xlink="http://www.w3.org/1999/xlink" width="100" zoomAndPan="magnify" viewBox="0 0 75 74.999997" height="100" preserveAspectRatio="xMidYMid meet" version="1.0"><defs><clipPath id="id1"><path d="M 5.378906 7.5 L 75 7.5 L 75 72.75 L 5.378906 72.75 Z M 5.378906 7.5 " clip-rule="nonzero"/></clipPath></defs><g clip-path="url(#id1)"><path fill="#a6a6a6" d="M 42.859375 7.660156 C 43.074219 7.769531 44.902344 8.304688 45.332031 8.519531 C 45.765625 8.734375 46.410156 9.054688 46.410156 9.054688 C 46.410156 9.054688 46.410156 9.054688 46.679688 9.269531 C 46.945312 9.484375 47.863281 9.914062 48.128906 10.289062 C 48.398438 10.664062 48.453125 11.09375 48.453125 11.09375 C 48.453125 11.09375 49.042969 11.304688 49.527344 11.519531 C 50.011719 11.734375 50.335938 11.734375 50.605469 11.894531 C 50.875 12.058594 50.925781 12.699219 50.765625 12.808594 C 50.605469 12.914062 50.121094 12.96875 50.121094 12.96875 C 50.121094 12.96875 50.121094 13.449219 50.28125 13.558594 C 50.441406 13.664062 50.550781 13.878906 50.765625 14.09375 C 50.980469 14.308594 51.464844 14.578125 51.519531 14.738281 C 51.574219 14.898438 51.574219 15.167969 51.789062 15.382812 C 52.003906 15.597656 52.164062 15.808594 52.164062 15.808594 L 52.808594 15.917969 C 52.808594 15.917969 52.757812 16.292969 53.023438 16.398438 C 53.292969 16.507812 53.777344 16.613281 53.777344 16.613281 L 53.671875 16.9375 L 54.90625 17.363281 L 54.53125 17.792969 L 54.101562 17.847656 L 53.722656 17.527344 L 50.875 17.042969 L 49.960938 16.238281 L 49.90625 15.972656 L 49.582031 15.917969 C 49.582031 15.917969 49.261719 15.703125 49.097656 15.433594 C 48.9375 15.167969 48.882812 14.792969 48.722656 14.628906 C 48.5625 14.46875 47.753906 14.308594 47.429688 14.148438 C 47.109375 13.988281 46.785156 13.878906 46.355469 13.933594 C 45.925781 13.988281 45.765625 13.878906 45.765625 13.878906 L 45.65625 14.363281 L 45.28125 14.683594 L 44.632812 14.898438 L 45.0625 15.59375 C 45.0625 15.59375 44.902344 15.863281 44.742188 15.972656 C 44.582031 16.078125 44.257812 16.132812 44.097656 16.023438 C 43.933594 15.917969 43.398438 16.078125 43.398438 16.078125 L 42.589844 15.917969 L 42.117188 15.703125 L 42.105469 7.5 C 42.105469 7.5 42.644531 7.554688 42.859375 7.660156 Z M 51.574219 11.050781 C 51.574219 11.050781 51.625 11.636719 52.109375 11.796875 C 52.59375 11.957031 52.863281 12.007812 52.863281 12.007812 C 52.863281 12.007812 53.078125 12.003906 53.292969 12.113281 C 53.507812 12.21875 53.886719 12.273438 54.316406 12.164062 C 54.746094 12.058594 55.339844 11.929688 55.605469 11.769531 C 55.875 11.609375 55.769531 11.265625 56.089844 11.265625 C 56.414062 11.265625 56.414062 11.265625 56.414062 11.265625 C 56.414062 11.265625 56.253906 10.628906 56.519531 10.574219 C 56.789062 10.523438 56.789062 9.976562 56.789062 9.816406 C 56.789062 9.65625 56.738281 9.382812 56.574219 9.488281 C 56.414062 9.597656 56.304688 9.699219 56.089844 9.539062 C 55.875 9.378906 55.929688 9.753906 55.929688 10.019531 C 55.929688 10.289062 55.820312 10.449219 55.605469 10.554688 C 55.390625 10.664062 55.230469 10.933594 54.960938 11.039062 C 54.691406 11.144531 54.691406 11.144531 54.476562 11.144531 C 54.261719 11.144531 53.992188 11.199219 53.992188 11.199219 L 52.757812 11.308594 Z M 41.488281 27.097656 C 41.488281 27.097656 41.3125 27.296875 41.042969 27.351562 C 40.773438 27.402344 40.6875 27.503906 40.417969 27.34375 C 40.148438 27.183594 39.675781 26.964844 39.460938 26.75 C 39.246094 26.535156 39.195312 26.320312 38.980469 26.214844 C 38.765625 26.105469 37.910156 25.621094 37.585938 25.515625 C 37.261719 25.40625 36.941406 25.085938 36.941406 25.085938 L 36.082031 24.871094 L 35.707031 25.140625 L 35.597656 24.226562 L 35.113281 23.90625 L 34.84375 23.851562 L 34.628906 23.53125 L 35.222656 22.082031 L 34.898438 21.921875 L 35.167969 21.4375 L 35.4375 21.492188 L 35.867188 21.226562 L 35.8125 20.796875 L 36.296875 20.3125 L 35.816406 20.046875 L 35.816406 19.671875 L 35.503906 19.832031 L 35.472656 20.207031 L 35.222656 20.421875 L 35.222656 20.097656 L 34.804688 19.671875 C 34.804688 19.671875 34.367188 19.9375 34.152344 19.992188 C 33.9375 20.046875 33.609375 19.832031 33.609375 19.832031 C 33.609375 19.832031 33.070312 19.832031 32.800781 19.671875 C 32.535156 19.507812 32.210938 19.347656 32.210938 19.347656 L 31.1875 19.242188 C 31.1875 19.242188 30.917969 18.972656 30.703125 18.867188 C 30.488281 18.757812 29.949219 18.8125 29.949219 18.8125 C 29.949219 18.8125 29.949219 19.082031 30.164062 19.082031 C 30.378906 19.082031 30.757812 19.1875 30.757812 19.457031 C 30.757812 19.722656 30.648438 20.046875 30.378906 20.046875 C 30.113281 20.046875 29.089844 20.097656 29.089844 20.097656 L 28.710938 20.152344 L 28.28125 20.421875 C 28.28125 20.421875 28.066406 20.582031 27.796875 20.6875 C 27.53125 20.796875 27.53125 21.277344 27.53125 21.277344 C 27.53125 21.277344 28.011719 21.652344 27.53125 21.707031 L 27.207031 21.601562 C 27.207031 21.601562 27.3125 21.816406 27.097656 22.082031 C 26.882812 22.351562 26.5625 22.511719 26.5625 22.511719 L 26.613281 22.941406 L 26.992188 23.371094 L 26.9375 23.585938 L 26.882812 23.960938 C 26.882812 23.960938 26.5625 23.636719 26.292969 23.53125 C 26.023438 23.421875 25.378906 23.421875 25.378906 23.421875 L 24.894531 23.960938 L 24.839844 23.371094 C 24.839844 23.371094 24.625 23.15625 24.464844 22.886719 C 24.300781 22.617188 23.925781 22.296875 23.65625 22.242188 C 23.386719 22.191406 23.117188 22.136719 23.117188 22.136719 C 23.117188 22.136719 23.011719 22.40625 22.796875 22.511719 C 22.582031 22.621094 22.152344 22.671875 22.152344 22.671875 L 21.828125 23.207031 L 21.667969 22.992188 L 21.128906 23.261719 C 21.128906 23.261719 21.019531 23.582031 21.128906 23.746094 C 21.238281 23.90625 20.859375 23.871094 20.859375 23.871094 L 20.753906 24.425781 L 20.375 24.425781 C 20.375 24.425781 20.484375 24.664062 20.320312 24.984375 C 20.160156 25.304688 20.054688 25.0625 20.214844 25.542969 C 20.214844 25.542969 19.890625 25.796875 19.730469 25.636719 C 19.570312 25.476562 19.570312 25.46875 19.570312 25.46875 L 19.03125 25.304688 C 19.03125 25.304688 18.761719 25.570312 18.921875 25.785156 C 19.085938 26 19.191406 26.320312 19.191406 26.320312 L 18.921875 26.640625 L 18.761719 27.175781 L 18.0625 25.675781 C 18.0625 25.675781 18.007812 26.15625 17.738281 26.210938 C 17.472656 26.265625 16.988281 26.425781 17.039062 26.746094 C 17.09375 27.070312 17.203125 27.820312 17.203125 27.820312 L 16.503906 28.730469 L 16.339844 29.160156 L 15.265625 30.070312 C 15.265625 30.070312 14.621094 30.339844 14.136719 30.445312 C 13.652344 30.554688 13.382812 30.5 13.0625 30.605469 C 12.738281 30.714844 12.523438 30.820312 12.144531 30.929688 C 11.769531 31.035156 11.394531 31.410156 11.070312 31.410156 C 10.746094 31.410156 9.996094 31.144531 9.996094 31.144531 C 9.996094 31.144531 9.347656 31.625 9.082031 31.734375 C 8.8125 31.839844 8.488281 32.375 8.273438 32.484375 C 8.058594 32.589844 7.898438 32.75 7.519531 32.859375 C 7.144531 32.964844 6.929688 33.394531 6.820312 33.554688 C 6.714844 33.71875 6.441406 33.878906 6.441406 33.878906 L 6.4375 33.128906 L 6.4375 32.914062 L 5.972656 33.609375 C 5.972656 33.609375 5.886719 33.929688 5.992188 34.414062 C 6.101562 34.894531 6.164062 35.324219 5.949219 35.539062 C 5.734375 35.753906 5.523438 35.96875 5.523438 36.289062 C 5.523438 36.613281 5.957031 37.417969 6.171875 37.578125 C 6.386719 37.738281 6.605469 38.703125 6.605469 38.917969 C 6.605469 39.132812 6.445312 39.5625 6.445312 39.5625 C 6.445312 39.5625 6.175781 39.292969 5.90625 39.023438 C 5.636719 38.757812 5.421875 39.078125 5.746094 39.5625 C 6.066406 40.042969 6.445312 40.527344 6.550781 40.792969 C 6.660156 41.0625 6.929688 42.242188 6.929688 42.242188 C 6.929688 42.242188 7.25 42.9375 7.46875 43.207031 C 7.683594 43.476562 7.683594 44.332031 7.734375 44.761719 C 7.789062 45.191406 8.273438 46.210938 8.273438 46.210938 C 8.273438 46.210938 8.433594 46.960938 8.648438 47.226562 C 8.867188 47.496094 8.757812 48.355469 8.757812 48.515625 C 8.757812 48.675781 8.8125 49.800781 8.8125 49.800781 L 8.113281 50.390625 L 7.898438 50.335938 L 7.949219 51.195312 C 7.949219 51.195312 8.167969 51.195312 8.488281 51.464844 C 8.8125 51.730469 9.296875 52.160156 9.511719 52.269531 C 9.726562 52.375 9.886719 52.320312 10.15625 52.429688 C 10.425781 52.535156 10.800781 52.480469 11.070312 52.535156 C 11.339844 52.589844 11.664062 52.535156 11.664062 52.535156 C 11.664062 52.535156 11.769531 52.429688 12.09375 52.160156 C 12.414062 51.894531 13.0625 51.625 13.277344 51.570312 C 13.492188 51.515625 13.761719 51.195312 13.761719 51.195312 C 13.761719 51.195312 14.191406 50.605469 14.566406 50.605469 C 14.945312 50.605469 15.644531 50.660156 15.804688 50.660156 C 15.964844 50.660156 16.609375 50.5 16.878906 50.5 C 17.148438 50.5 17.957031 50.660156 18.277344 50.660156 C 18.601562 50.660156 19.140625 50.445312 19.140625 50.445312 C 19.140625 50.445312 19.621094 50.175781 19.621094 49.960938 C 19.621094 49.75 19.570312 49.320312 20.105469 49.160156 C 20.644531 48.996094 20.859375 48.945312 21.289062 48.730469 C 21.71875 48.515625 21.773438 48.03125 22.367188 48.085938 C 22.957031 48.140625 23.980469 48.085938 24.355469 48.03125 C 24.734375 47.980469 25.109375 47.871094 25.539062 47.605469 C 25.96875 47.335938 27.046875 47.121094 27.746094 47.121094 C 28.445312 47.121094 28.820312 47.015625 29.25 47.121094 C 29.679688 47.226562 29.734375 47.550781 30.378906 47.710938 C 31.027344 47.871094 31.296875 47.980469 31.671875 48.085938 C 32.046875 48.195312 32.210938 48.40625 32.640625 48.515625 C 33.070312 48.621094 33.015625 48.890625 33.015625 48.890625 C 33.015625 48.890625 32.53125 49.050781 32.910156 49.371094 C 33.285156 49.695312 33.660156 49.800781 33.660156 49.800781 C 33.660156 49.800781 33.714844 50.070312 33.929688 50.445312 C 34.144531 50.820312 34.253906 51.195312 34.359375 51.464844 C 34.46875 51.730469 34.308594 51.945312 34.308594 51.945312 L 35.058594 52.375 L 35.328125 52.105469 L 35.222656 51.894531 C 35.222656 51.894531 35.652344 51.304688 35.867188 51.089844 C 36.082031 50.875 36.296875 50.605469 36.511719 50.550781 C 36.726562 50.5 36.726562 50.5 36.726562 50.5 L 37.425781 49.265625 L 37.585938 48.621094 C 37.585938 48.621094 37.695312 48.945312 37.804688 49.371094 C 37.910156 49.800781 37.804688 49.640625 37.75 50.015625 C 37.695312 50.390625 37.535156 50.339844 37.371094 50.820312 C 37.210938 51.304688 37.320312 51.785156 37.15625 52.054688 C 36.996094 52.320312 36.457031 52.484375 36.457031 52.484375 C 36.457031 52.484375 36.191406 52.75 36.351562 52.804688 C 36.511719 52.859375 36.78125 52.859375 37.105469 52.859375 C 37.425781 52.859375 37.75 52.105469 37.75 52.105469 L 37.964844 51.355469 C 37.964844 51.355469 38.769531 51.785156 38.554688 52.535156 C 38.339844 53.285156 38.125 53.609375 38.125 53.609375 C 38.125 53.609375 39.148438 53.179688 39.417969 53.125 C 39.683594 53.074219 39.523438 53.664062 39.523438 53.664062 C 39.523438 53.664062 39.738281 53.929688 40.007812 54.304688 C 40.277344 54.679688 40.332031 55.21875 40.117188 55.539062 C 40.117188 55.539062 40.277344 56.183594 40.4375 56.34375 C 40.601562 56.503906 40.816406 56.503906 40.976562 56.773438 C 41.136719 57.039062 41.515625 57.308594 41.890625 57.46875 C 42.265625 57.628906 42.375 57.953125 42.375 57.953125 C 42.375 57.953125 42.804688 57.683594 43.183594 57.84375 C 43.558594 58.003906 43.933594 58.003906 44.203125 58.164062 C 44.472656 58.328125 44.902344 58.703125 44.902344 58.703125 C 44.902344 58.703125 45.546875 58.59375 45.816406 58.273438 C 46.085938 57.953125 46.679688 57.683594 46.679688 57.683594 L 46.300781 57.414062 L 47.054688 57.09375 L 47.109375 57.84375 L 47.699219 57.789062 C 47.699219 57.789062 47.59375 58.003906 47.753906 58.164062 C 47.914062 58.328125 48.128906 58.378906 48.34375 58.59375 C 48.5625 58.808594 48.917969 59.132812 48.917969 59.132812 L 49.167969 58.703125 L 49.167969 58.378906 C 49.167969 58.378906 49.46875 58.542969 49.738281 58.328125 C 50.007812 58.113281 50.386719 57.738281 50.871094 57.414062 C 51.355469 57.09375 52.054688 56.773438 52.378906 56.933594 C 52.699219 57.09375 53.238281 56.878906 53.238281 56.878906 L 53.292969 56.558594 L 53.671875 56.128906 C 53.671875 56.128906 53.507812 55.699219 53.5625 55.539062 C 53.617188 55.378906 53.777344 54.84375 53.777344 54.84375 L 53.992188 53.714844 C 53.992188 53.714844 54.371094 52.964844 54.421875 52.804688 C 54.476562 52.644531 54.855469 51.945312 55.015625 51.519531 C 55.175781 51.089844 55.390625 50.445312 55.390625 50.445312 C 55.390625 50.445312 55.605469 49.640625 55.875 49.375 C 56.144531 49.105469 56.519531 48.945312 56.789062 48.460938 C 57.058594 47.980469 57.488281 47.496094 57.542969 46.960938 C 57.597656 46.425781 57.703125 45.675781 57.8125 45.191406 C 57.917969 44.707031 58.1875 43.691406 58.1875 43.046875 C 58.1875 42.402344 58.132812 41.8125 57.917969 41.007812 C 57.703125 40.207031 57.652344 39.667969 57.597656 39.242188 C 57.542969 38.8125 57.542969 38.703125 57.328125 38.167969 C 57.113281 37.632812 56.789062 36.988281 56.628906 36.933594 C 56.46875 36.882812 56.414062 36.933594 56.199219 36.613281 C 55.984375 36.292969 55.714844 36.128906 55.714844 36.128906 L 55.390625 35.96875 C 55.390625 35.96875 54.746094 35.542969 54.691406 35.21875 C 54.636719 34.898438 54.421875 33.824219 54.421875 33.824219 L 54.207031 34.039062 L 53.722656 33.398438 C 53.722656 33.398438 53.402344 33.503906 53.402344 33.664062 C 53.402344 33.824219 53.1875 33.824219 53.1875 33.824219 L 52.917969 32.644531 L 52.59375 32.378906 L 52.378906 31.679688 L 51.839844 31.359375 C 51.839844 31.359375 51.894531 30.875 52.058594 30.984375 C 52.21875 31.089844 51.625 30.554688 51.625 30.554688 L 51.410156 30.664062 L 50.660156 30.179688 L 50.226562 29.484375 C 50.226562 29.484375 50.066406 29.804688 49.582031 29.484375 C 49.101562 29.160156 48.722656 29.054688 48.722656 29.054688 L 48.722656 28.464844 C 48.722656 28.464844 48.359375 28.304688 48.359375 28.035156 C 48.359375 27.765625 48.59375 27.230469 48.488281 26.910156 C 48.378906 26.585938 48.226562 26.265625 48.226562 26.265625 C 48.226562 26.265625 47.882812 26.320312 47.773438 25.835938 C 47.667969 25.355469 47.535156 24.28125 47.535156 24.28125 L 47.535156 23.746094 C 47.535156 23.746094 47.203125 23.53125 46.933594 23.210938 C 46.664062 22.886719 46.484375 22.621094 46.484375 22.621094 C 46.484375 22.621094 46.148438 22.78125 45.828125 22.78125 C 45.503906 22.78125 45.339844 22.351562 45.339844 22.351562 C 45.339844 22.351562 45.28125 21.707031 45.175781 21.441406 C 45.066406 21.171875 44.957031 20.851562 44.957031 20.851562 L 44.902344 20.476562 L 44.582031 20.21875 L 44.632812 19.695312 L 44.203125 19.695312 L 44.148438 18.277344 L 43.988281 17.929688 L 43.503906 18.238281 C 43.503906 18.238281 43.558594 18.335938 43.398438 18.605469 C 43.234375 18.875 43.019531 19.085938 43.019531 19.300781 C 43.019531 19.511719 42.699219 19.832031 42.699219 19.832031 L 42.484375 20.367188 C 42.484375 20.367188 42.804688 20.476562 42.699219 20.796875 C 42.589844 21.117188 42.75 21.28125 42.589844 21.707031 C 42.429688 22.136719 42.480469 22.296875 42.535156 22.835938 C 42.589844 23.371094 42.699219 23.691406 42.535156 24.066406 C 42.375 24.441406 42.375 24.710938 42.160156 25.246094 C 41.945312 25.78125 41.675781 26.265625 41.621094 26.585938 C 41.570312 26.910156 41.488281 27.097656 41.488281 27.097656 Z M 27.90625 18.867188 C 27.90625 18.867188 28.175781 19.402344 28.445312 19.457031 C 28.714844 19.507812 28.980469 19.347656 29.144531 19.1875 C 29.304688 19.027344 29.199219 18.707031 29.035156 18.707031 C 28.875 18.707031 28.820312 18.917969 28.550781 18.867188 C 28.28125 18.8125 27.90625 18.867188 27.90625 18.867188 Z M 27.476562 19.546875 L 28.015625 19.546875 L 27.636719 19.066406 Z M 38.019531 53.875 L 37.839844 53.796875 L 37.535156 53.660156 L 37.210938 53.339844 L 35.972656 53.824219 C 35.972656 53.824219 36.136719 54.199219 36.511719 54.199219 C 36.890625 54.199219 37.320312 54.25 37.320312 54.25 C 37.320312 54.25 37.265625 53.824219 38.019531 53.875 Z M 46.773438 61.8125 C 46.773438 61.8125 46.777344 62.5625 46.992188 63.042969 C 47.210938 63.527344 47.480469 64.007812 47.644531 64.277344 C 47.804688 64.546875 47.804688 64.546875 47.804688 64.546875 L 47.699219 64.761719 L 47.484375 64.597656 L 47.644531 65.351562 C 47.644531 65.351562 47.929688 65.777344 48.089844 65.992188 C 48.253906 66.207031 48.425781 66.367188 48.425781 66.367188 C 48.722656 66.367188 48.425781 66.582031 48.425781 66.582031 C 48.425781 66.582031 48.75 66.851562 48.964844 66.851562 C 49.179688 66.851562 49.460938 66.902344 49.460938 66.902344 C 49.460938 66.902344 49.578125 66.316406 49.792969 66.207031 C 50.007812 66.101562 50.171875 66.261719 50.277344 65.992188 C 50.386719 65.726562 50.335938 65.402344 50.601562 65.457031 C 50.871094 65.511719 51.140625 65.402344 51.140625 65.082031 C 51.140625 64.761719 51.355469 64.546875 51.410156 64.222656 C 51.464844 63.902344 51.464844 63.632812 51.464844 63.3125 C 51.464844 62.992188 51.359375 62.347656 51.359375 62.347656 L 51.089844 61.917969 C 51.089844 61.917969 50.980469 62.238281 50.660156 62.078125 C 50.660156 62.078125 50.28125 62.402344 50.121094 62.402344 C 49.960938 62.402344 49.960938 62.347656 49.691406 62.453125 C 49.421875 62.5625 49.527344 62.5625 49.042969 62.507812 C 48.5625 62.453125 48.667969 62.722656 48.292969 62.402344 C 47.914062 62.078125 47.914062 62.027344 47.644531 61.972656 C 47.378906 61.917969 47.378906 61.917969 47.378906 61.917969 Z M 82.488281 62.617188 L 82.277344 63.203125 C 82.277344 63.203125 82.011719 63.367188 81.851562 63.582031 C 81.691406 63.792969 81.476562 63.902344 81.476562 64.171875 C 81.476562 64.4375 81.207031 65.082031 80.941406 65.351562 C 80.671875 65.617188 80.671875 65.886719 80.457031 65.886719 C 80.242188 65.886719 79.972656 66.207031 79.972656 66.207031 C 79.972656 66.207031 79.863281 66.527344 79.597656 66.636719 C 79.328125 66.742188 78.359375 67.441406 78.359375 67.441406 L 77.445312 67.761719 C 77.445312 67.761719 77.390625 67.976562 77.175781 68.191406 C 76.960938 68.40625 77.066406 68.460938 76.90625 68.675781 C 76.746094 68.886719 76.53125 68.886719 76.53125 69.15625 C 76.53125 69.425781 76.207031 69.476562 76.207031 69.476562 L 75.832031 69.851562 C 75.832031 69.851562 75.617188 70.230469 75.667969 70.390625 C 75.722656 70.550781 75.402344 71.03125 75.402344 71.03125 L 75.453125 71.515625 C 75.453125 71.515625 75.722656 72 76.101562 71.785156 C 76.476562 71.570312 76.800781 71.835938 76.800781 71.835938 L 77.445312 72.210938 C 77.445312 72.210938 77.765625 72.585938 77.929688 72.535156 C 78.089844 72.480469 78.414062 72.320312 78.414062 72.320312 C 78.414062 72.320312 78.683594 72.75 79.167969 72.375 C 79.648438 71.996094 79.867188 72.050781 80.082031 71.835938 C 80.296875 71.621094 80.671875 71.355469 80.671875 71.355469 C 80.671875 71.355469 80.671875 70.925781 80.832031 70.65625 C 80.996094 70.390625 81.046875 69.90625 81.15625 69.691406 C 81.265625 69.476562 81.425781 68.886719 81.480469 68.621094 C 81.53125 68.351562 81.480469 67.546875 81.695312 67.65625 C 81.910156 67.761719 82.394531 67.496094 82.394531 67.496094 L 82.929688 67.332031 L 83.683594 67.441406 L 83.628906 67.171875 L 83.308594 67.066406 L 83.46875 66.207031 C 83.46875 66.207031 83.578125 65.832031 84.007812 65.511719 C 84.4375 65.1875 84.652344 64.597656 84.8125 64.4375 C 84.976562 64.277344 85.296875 63.417969 85.296875 63.417969 C 85.296875 63.417969 84.976562 63.152344 85.082031 62.882812 C 85.191406 62.617188 85.191406 62.617188 85.191406 62.617188 L 84.761719 62.777344 L 84.652344 62.238281 C 84.652344 62.238281 84.359375 62.617188 84.089844 62.828125 C 83.820312 63.042969 83.738281 62.828125 83.738281 62.667969 C 83.738281 62.507812 83.738281 62.292969 83.738281 62.292969 L 83.347656 62.078125 L 83.273438 61.597656 L 82.941406 61.917969 L 82.453125 62.132812 Z M 85.929688 62.992188 L 86.421875 63.152344 L 86.855469 63.3125 L 87.449219 62.882812 C 87.449219 62.882812 88.09375 61.542969 88.363281 61.273438 C 88.632812 61.007812 88.902344 60.257812 88.902344 60.257812 L 88.6875 59.71875 C 88.6875 59.71875 88.691406 59.34375 89.175781 59.238281 C 89.65625 59.128906 89.824219 59.023438 89.824219 59.023438 L 89.824219 59.292969 L 90.210938 59.183594 L 90.066406 58.753906 L 90.183594 58.433594 L 90.617188 58.21875 C 90.617188 58.21875 90.566406 57.308594 90.726562 56.984375 L 90.835938 56.769531 L 90.191406 56.558594 L 89.601562 56.878906 L 89.277344 57.199219 C 89.277344 57.199219 89.007812 57.359375 88.523438 57.09375 C 88.039062 56.824219 87.664062 56.769531 87.664062 56.769531 L 87.339844 56.394531 L 87.179688 55.324219 L 86.75 54.949219 C 86.75 54.949219 87.019531 56.019531 86.75 55.96875 C 86.480469 55.914062 86.480469 55.644531 86.480469 55.644531 L 86.105469 55.539062 L 85.835938 55.269531 L 85.945312 54.839844 L 85.511719 53.929688 L 85.566406 53.609375 L 85.246094 53.070312 L 84.8125 52.480469 L 84.113281 52.214844 L 83.578125 52 L 83.792969 52.480469 L 83.898438 53.070312 L 84.652344 54.304688 C 84.652344 54.304688 85.136719 54.304688 85.296875 54.464844 C 85.460938 54.628906 85.40625 54.949219 85.40625 54.949219 L 85.566406 55.644531 C 85.566406 55.644531 86.050781 55.859375 85.78125 55.914062 C 85.511719 55.96875 85.835938 56.234375 85.835938 56.234375 L 85.996094 56.609375 L 86.050781 57.148438 L 85.996094 57.523438 L 85.675781 57.628906 C 85.675781 57.628906 85.945312 58.003906 85.566406 58.488281 C 85.191406 58.96875 84.867188 59.183594 84.707031 59.292969 C 84.542969 59.398438 84.597656 59.667969 84.8125 59.773438 C 85.027344 59.882812 85.296875 60.042969 85.460938 60.203125 C 85.621094 60.363281 85.835938 60.523438 86.050781 60.578125 C 86.265625 60.632812 86.644531 60.683594 86.589844 61.167969 C 86.535156 61.648438 86.320312 62.078125 86.160156 62.292969 C 85.996094 62.507812 85.648438 62.777344 85.929688 62.992188 Z M 85.929688 62.992188 " fill-opacity="1" fill-rule="nonzero"/></g></svg>