<svg xmlns="http://www.w3.org/2000/svg" xmlns:xlink="http://www.w3.org/1999/xlink" width="100" zoomAndPan="magnify" viewBox="0 0 75 74.999997" height="100" preserveAspectRatio="xMidYMid meet" version="1.0"><defs><clipPath id="id1"><path d="M 3.617188 0.984375 L 63.617188 0.984375 L 63.617188 68.484375 L 3.617188 68.484375 Z M 3.617188 0.984375 " clip-rule="nonzero"/></clipPath></defs><g clip-path="url(#id1)"><path fill="#7ed957" d="M 60.726562 30.527344 C 60.78125 30.941406 60.953125 31.011719 61.03125 31.210938 C 61.109375 31.410156 61.015625 31.503906 60.964844 31.699219 C 60.910156 31.898438 60.847656 32.109375 60.921875 32.273438 C 60.996094 32.4375 61.269531 32.402344 61.394531 32.378906 C 61.523438 32.359375 61.519531 33.035156 61.519531 33.035156 L 61.394531 33.347656 L 61.113281 33.4375 C 61.113281 33.4375 61.082031 33.550781 61.042969 33.738281 C 61.003906 33.921875 60.832031 33.976562 60.6875 34.054688 C 60.542969 34.132812 60.316406 34.265625 60.066406 34.503906 C 59.816406 34.742188 59.84375 35.164062 59.777344 35.296875 C 59.710938 35.429688 59.5 35.601562 59.355469 35.722656 C 59.210938 35.839844 58.761719 36.132812 58.707031 36.195312 C 58.65625 36.261719 58.390625 36.699219 58.195312 36.898438 C 57.996094 37.097656 57.851562 36.992188 57.691406 37.015625 C 57.535156 37.042969 57.382812 37.15625 57.382812 37.15625 L 57.472656 37.511719 C 57.472656 37.511719 57.390625 37.902344 57.335938 38.140625 C 57.285156 38.378906 57.085938 38.640625 57.085938 38.640625 L 57.269531 39.371094 L 57.066406 40.191406 C 57.066406 40.191406 57.113281 40.347656 57.164062 40.46875 C 57.21875 40.585938 57.136719 40.601562 57.125 40.707031 C 57.113281 40.8125 57.058594 40.996094 57.074219 41.078125 C 57.085938 41.15625 57.074219 41.40625 57.097656 41.617188 C 57.125 41.828125 57.179688 42.160156 57.164062 42.4375 C 57.152344 42.714844 57.136719 42.675781 57.164062 42.847656 C 57.191406 43.019531 57.21875 43.164062 57.125 43.507812 C 57.03125 43.851562 56.953125 43.679688 56.664062 44.039062 C 56.371094 44.394531 56.558594 44.605469 56.78125 44.84375 C 57.003906 45.082031 57.070312 45.28125 57.125 45.558594 C 57.175781 45.835938 56.976562 46.0625 56.859375 46.246094 C 56.738281 46.429688 56.394531 46.65625 56.394531 46.65625 L 56.054688 47.683594 L 56.132812 48.53125 L 56.644531 48.722656 L 57.046875 48.757812 L 57.046875 49.117188 C 57.046875 49.117188 57.082031 49.5 56.84375 49.65625 C 56.605469 49.816406 56.121094 49.550781 56.121094 49.550781 L 55.785156 49.675781 C 55.785156 49.675781 55.910156 49.960938 56.003906 50.109375 C 56.097656 50.253906 56.203125 50.542969 56.320312 50.597656 C 56.4375 50.648438 56.636719 50.648438 56.699219 50.664062 C 56.761719 50.675781 56.886719 50.503906 56.964844 50.453125 C 57.046875 50.398438 57.179688 50.320312 57.335938 50.253906 C 57.496094 50.1875 57.578125 50.273438 57.578125 50.273438 C 57.578125 50.273438 57.558594 50.386719 57.519531 50.464844 C 57.480469 50.542969 57.402344 50.847656 57.375 50.902344 C 57.347656 50.953125 57.179688 51.21875 57.058594 51.363281 C 56.941406 51.507812 56.820312 51.808594 56.820312 51.808594 L 57.019531 52.792969 L 57.683594 52.847656 L 57.808594 53.324219 C 57.808594 53.324219 57.851562 53.359375 57.957031 53.375 C 58.0625 53.386719 58.054688 53.589844 58.054688 53.589844 C 58.054688 53.589844 58.207031 53.613281 58.273438 53.613281 C 58.339844 53.613281 58.367188 53.691406 58.445312 53.730469 C 58.523438 53.769531 58.667969 53.824219 58.789062 53.851562 C 58.90625 53.875 58.722656 54.453125 58.722656 54.453125 C 58.722656 54.453125 58.285156 54.578125 58.105469 54.613281 C 57.925781 54.648438 57.84375 54.507812 57.84375 54.507812 C 57.84375 54.507812 57.746094 54.644531 57.613281 54.722656 C 57.480469 54.800781 57.453125 54.683594 57.367188 54.628906 C 57.277344 54.578125 57.21875 54.605469 57.066406 54.578125 C 56.917969 54.550781 56.941406 54.433594 56.910156 54.402344 C 56.878906 54.371094 56.859375 54.207031 56.625 54.167969 C 56.386719 54.128906 56.4375 54.195312 56.308594 54.273438 C 56.175781 54.351562 56.042969 54.207031 55.964844 54.21875 C 55.886719 54.234375 55.753906 54.234375 55.609375 54.285156 C 55.460938 54.339844 55.371094 54.351562 55.226562 54.5625 C 55.078125 54.773438 55.054688 54.617188 54.867188 54.5625 C 54.683594 54.511719 54.644531 54.40625 54.578125 54.339844 C 54.511719 54.273438 54.324219 54.257812 54.324219 54.257812 C 54.324219 54.257812 54.367188 54.390625 54.40625 54.445312 C 54.445312 54.496094 54.394531 54.578125 54.394531 54.628906 C 54.394531 54.683594 54.25 54.589844 54.210938 54.550781 C 54.167969 54.511719 54.167969 54.363281 54.128906 54.273438 C 54.089844 54.179688 53.957031 54.074219 53.867188 54.035156 C 53.773438 53.996094 53.746094 53.875 53.679688 53.796875 C 53.617188 53.71875 53.523438 53.691406 53.378906 53.664062 C 53.234375 53.636719 53.074219 53.664062 52.996094 53.652344 C 52.917969 53.636719 52.941406 53.492188 52.914062 53.484375 C 52.890625 53.476562 52.757812 53.480469 52.652344 53.503906 C 52.546875 53.53125 52.511719 53.695312 52.511719 53.695312 C 52.511719 53.695312 52.453125 53.675781 52.386719 53.664062 C 52.320312 53.652344 52.28125 53.675781 52.242188 53.636719 C 52.203125 53.597656 52.21875 53.460938 51.980469 53.503906 C 51.742188 53.542969 51.742188 53.699219 51.542969 53.859375 C 51.347656 54.019531 51.015625 54.136719 51.015625 54.136719 L 50.945312 54.402344 L 50.453125 54.648438 L 50.664062 55.265625 C 50.664062 55.265625 50.398438 55.40625 50.292969 55.492188 C 50.191406 55.582031 50.121094 54.96875 50.011719 54.945312 C 49.90625 54.925781 49.835938 54.789062 49.835938 54.789062 C 49.671875 54.726562 49.625 55.125 49.625 55.125 L 49.445312 55.484375 L 49.363281 55.882812 L 49.488281 56.039062 L 49.289062 56.320312 L 49.195312 56.851562 L 49.496094 56.9375 L 49.730469 57.398438 L 49.960938 57.390625 L 50.152344 57.449219 L 50.488281 57.839844 L 50.578125 58.457031 L 50.347656 58.386719 C 49.902344 58.585938 50.453125 58.753906 50.453125 58.753906 L 50.4375 58.898438 L 50.164062 59.132812 L 49.824219 58.703125 L 49.824219 58.898438 C 49.824219 58.898438 49.8125 59.332031 49.574219 59.652344 C 49.339844 59.96875 49.289062 60.523438 49.289062 60.523438 L 49.527344 60.640625 C 49.527344 60.640625 49.722656 60.917969 49.722656 61.078125 C 49.722656 61.238281 49.722656 61.476562 49.761719 61.714844 C 49.804688 61.949219 50.039062 62.269531 50.039062 62.269531 L 50.398438 62.808594 L 50.03125 63.234375 L 49.660156 63.285156 L 49.554688 63.058594 L 49.210938 62.746094 L 48.640625 62.457031 L 48.625 62.246094 C 48.625 62.246094 48.378906 62.03125 48.0625 61.953125 C 47.746094 61.871094 47.53125 62.105469 47.53125 62.105469 L 46.847656 61.648438 L 45.296875 61.3125 L 45.015625 61.277344 L 44.65625 61.15625 C 44.65625 61.15625 44.023438 60.601562 43.828125 60.484375 C 43.628906 60.363281 43.589844 60.285156 43.351562 60.285156 C 43.113281 60.285156 43.035156 59.847656 43.035156 59.847656 L 43.273438 59.691406 L 43.351562 59.453125 C 43.351562 59.453125 43.589844 59.214844 43.628906 59.09375 C 43.667969 58.976562 43.90625 58.9375 43.90625 58.9375 C 43.90625 58.9375 43.90625 58.9375 43.828125 58.777344 C 43.746094 58.621094 43.628906 58.421875 43.628906 58.421875 L 43.945312 58.460938 L 44.179688 58.261719 L 44.535156 58.0625 L 44.292969 57.90625 C 44.292969 57.90625 43.773438 58.105469 43.296875 58.183594 C 42.824219 58.261719 42.652344 58.421875 42.253906 58.621094 C 41.859375 58.816406 41.234375 58.859375 41.234375 58.859375 L 41.234375 59.09375 L 41.421875 59.210938 L 41.730469 59.363281 L 41.847656 59.59375 L 42.203125 59.664062 L 42.835938 59.664062 L 42.675781 59.992188 L 42.15625 59.890625 L 41.828125 60.167969 C 41.828125 60.167969 41.613281 60.085938 41.378906 60.324219 C 41.140625 60.5625 40.828125 60.472656 40.828125 60.472656 C 40.828125 60.472656 40.828125 60.324219 40.828125 60.167969 C 40.828125 60.007812 40.703125 59.890625 40.585938 59.730469 C 40.464844 59.570312 40.226562 59.53125 40.226562 59.53125 C 40.226562 59.53125 40.421875 59.453125 40.582031 59.335938 C 40.738281 59.214844 40.777344 59.257812 41.015625 59.21875 C 41.253906 59.175781 40.816406 58.980469 40.816406 58.980469 C 40.816406 58.980469 40.460938 59.066406 40.226562 59.066406 C 39.988281 59.066406 39.828125 58.839844 39.828125 58.839844 L 39.800781 58.707031 L 40.027344 58.707031 L 39.828125 58.523438 C 39.828125 58.523438 39.589844 58.5 39.394531 58.460938 C 39.195312 58.421875 39.117188 58.738281 38.839844 58.898438 C 38.5625 59.054688 38.5625 59.253906 38.445312 59.414062 C 38.324219 59.570312 38.363281 59.730469 38.324219 60.007812 C 38.285156 60.285156 38.007812 60.285156 37.851562 60.445312 C 37.691406 60.601562 37.691406 60.960938 37.691406 61.199219 C 37.691406 61.433594 37.574219 61.515625 37.414062 61.554688 C 37.257812 61.59375 37.257812 61.832031 37.21875 61.949219 C 37.175781 62.070312 36.980469 62.304688 36.980469 62.304688 C 36.980469 62.304688 37.175781 62.542969 37.175781 62.703125 C 37.175781 62.859375 37.257812 62.9375 37.453125 63.09375 C 37.652344 63.253906 37.847656 63.488281 37.847656 63.488281 C 37.847656 63.488281 37.851562 63.488281 37.691406 63.488281 C 37.535156 63.488281 37.175781 63.414062 36.980469 63.574219 C 36.78125 63.730469 36.582031 63.855469 36.304688 63.894531 C 36.03125 63.933594 36.070312 63.695312 35.753906 63.65625 C 35.4375 63.617188 35.316406 63.617188 35.078125 63.578125 C 34.84375 63.539062 34.484375 63.816406 34.484375 63.816406 C 34.484375 63.816406 34.800781 64.054688 34.683594 64.09375 C 34.566406 64.132812 34.367188 64.332031 34.367188 64.332031 C 34.367188 64.332031 34.128906 64.054688 33.890625 63.933594 C 33.65625 63.816406 33.851562 64.410156 34.011719 64.648438 C 34.167969 64.886719 34.089844 64.925781 34.089844 64.925781 C 33.972656 64.886719 33.890625 65.324219 33.890625 65.324219 L 34.207031 65.679688 L 34.722656 65.957031 C 34.722656 65.957031 34.605469 66.195312 34.484375 66.117188 C 34.367188 66.035156 34.167969 66.234375 34.167969 66.234375 L 34.25 66.472656 L 33.890625 66.511719 L 34.050781 66.789062 L 34.089844 67.226562 L 33.890625 67.066406 L 33.574219 67.140625 L 33.414062 66.902344 L 33.140625 66.902344 L 33.179688 66.667969 C 33.179688 66.667969 32.980469 66.472656 32.863281 66.3125 C 32.746094 66.152344 32.980469 66.03125 32.980469 66.03125 L 33.296875 65.949219 L 33.707031 65.945312 L 34.167969 65.945312 L 33.734375 65.714844 L 32.824219 65.679688 L 32.585938 65.402344 L 32.863281 65.28125 L 32.425781 65.003906 C 32.425781 65.003906 32.109375 64.609375 32.03125 64.449219 C 31.953125 64.292969 31.636719 64.015625 31.636719 64.015625 C 31.636719 64.015625 31.792969 63.578125 31.753906 63.378906 C 31.714844 63.179688 31.714844 62.785156 31.714844 62.785156 C 31.714844 62.785156 30.527344 61.832031 30.328125 61.632812 C 30.132812 61.433594 30.011719 61.433594 29.734375 61.394531 C 29.460938 61.355469 29.339844 61.117188 29.183594 61 C 29.023438 60.878906 29.023438 60.640625 29.023438 60.640625 C 29.023438 60.640625 29.0625 60.402344 28.984375 60.285156 C 28.90625 60.167969 28.746094 60.007812 28.546875 59.769531 C 28.351562 59.53125 28.351562 60.085938 28.191406 60.085938 C 28.035156 60.085938 27.875 59.808594 27.953125 59.652344 C 28.035156 59.492188 27.835938 59.332031 27.835938 59.332031 C 27.835938 59.332031 27.597656 59.453125 27.242188 59.570312 C 26.886719 59.691406 27.242188 60.007812 27.203125 60.207031 C 27.164062 60.402344 27.164062 60.683594 27.402344 60.921875 C 27.636719 61.15625 27.875 61.238281 28.035156 61.355469 C 28.191406 61.476562 28.113281 61.714844 28.273438 62.03125 C 28.429688 62.347656 28.550781 62.425781 28.707031 62.546875 C 28.867188 62.664062 28.945312 62.746094 29.222656 62.785156 C 29.5 62.824219 29.617188 63.101562 29.617188 63.101562 L 29.816406 63.339844 L 30.886719 63.855469 L 31.164062 64.171875 L 31.085938 64.332031 L 30.8125 64.210938 L 30.269531 63.855469 L 29.929688 64.488281 L 30.332031 64.8125 L 30.332031 65.125 L 30.09375 65.28125 L 29.933594 65.679688 L 29.734375 65.71875 L 29.578125 66.078125 L 29.378906 65.996094 L 29.5 65.5625 L 29.617188 65.324219 L 29.5 64.808594 L 29.339844 64.253906 L 29.144531 64.371094 L 28.90625 64.097656 L 28.867188 63.785156 L 28.589844 63.832031 L 28.3125 63.726562 L 28.085938 63.351562 L 27.679688 63.351562 L 27.203125 62.929688 L 26.726562 62.425781 L 26.410156 62.1875 L 26.054688 61.753906 L 25.777344 61 C 25.777344 61 25.183594 60.640625 24.949219 60.5625 C 24.710938 60.484375 24.550781 61 24.550781 61 C 24.550781 61 24.316406 61.15625 24.078125 61.238281 C 23.839844 61.316406 23.683594 61.515625 23.523438 61.671875 C 23.367188 61.832031 22.972656 61.632812 22.734375 61.59375 C 22.496094 61.554688 22.183594 61.476562 22.183594 61.476562 C 22.183594 61.476562 21.910156 61.355469 21.632812 61.476562 C 21.359375 61.59375 21.410156 61.871094 21.410156 61.871094 L 21.472656 62.378906 L 21.472656 62.703125 L 21.210938 62.980469 C 21.210938 62.980469 20.832031 63.261719 20.394531 63.457031 C 19.960938 63.65625 19.921875 63.894531 19.800781 63.972656 C 19.683594 64.054688 19.207031 64.847656 19.207031 64.847656 C 19.207031 64.847656 19.246094 65.046875 19.328125 65.164062 C 19.40625 65.28125 19.484375 65.363281 19.484375 65.363281 L 19.328125 65.558594 C 19.328125 65.558594 19.328125 65.558594 19.089844 65.71875 C 18.851562 65.878906 18.929688 66.273438 18.695312 66.273438 C 18.457031 66.273438 18.296875 66.589844 18.257812 66.75 C 18.21875 66.910156 17.941406 67.027344 17.742188 66.988281 C 17.546875 66.949219 17.148438 67.027344 16.914062 67.027344 C 16.675781 67.027344 16.4375 67.148438 16.4375 67.148438 C 16.4375 67.148438 15.921875 67.621094 15.726562 67.582031 C 15.527344 67.542969 15.328125 67.148438 15.132812 66.828125 C 14.933594 66.511719 14.816406 66.671875 14.457031 66.75 C 14.101562 66.828125 13.707031 66.75 13.707031 66.75 L 13.824219 65.640625 L 13.585938 65.679688 L 13.351562 65.320312 L 13.746094 64.09375 C 13.746094 64.09375 13.863281 63.457031 13.863281 63.339844 C 13.863281 63.21875 13.746094 62.824219 13.746094 62.824219 L 13.707031 62.386719 L 13.667969 62.109375 L 13.429688 61.910156 L 13.628906 61.632812 L 14.0625 61.554688 L 14.101562 61.316406 L 14.339844 61.238281 C 14.339844 61.238281 14.695312 61.238281 14.855469 61.316406 C 15.011719 61.394531 15.527344 61.277344 15.527344 61.277344 C 15.527344 61.277344 15.921875 61.316406 16.320312 61.355469 C 16.714844 61.394531 16.992188 61.515625 17.269531 61.472656 C 17.546875 61.433594 18.179688 61.671875 18.417969 61.59375 C 18.652344 61.515625 18.695312 60.164062 18.652344 59.769531 C 18.613281 59.371094 18.695312 58.9375 18.695312 58.9375 L 18.335938 58.738281 C 18.335938 58.738281 18.101562 58.339844 18.101562 58.183594 C 18.101562 58.023438 18.058594 57.90625 17.902344 57.863281 C 17.742188 57.824219 17.546875 57.707031 17.347656 57.585938 C 17.148438 57.46875 16.953125 57.429688 16.792969 57.386719 C 16.636719 57.347656 16.714844 57.230469 16.597656 57.1875 C 16.476562 57.148438 16.398438 56.792969 16.398438 56.792969 L 16.714844 56.667969 L 17.347656 56.425781 L 17.742188 56.65625 L 17.980469 56.65625 L 18.417969 56.625 L 18.335938 56.316406 L 18.140625 55.5625 L 18.417969 55.644531 L 18.773438 56 C 18.773438 56 19.089844 56.078125 19.328125 56 C 19.5625 55.921875 19.722656 55.882812 19.722656 55.882812 L 19.445312 55.722656 C 19.445312 55.722656 19.761719 55.523438 19.882812 55.445312 C 20 55.367188 20.238281 55.246094 20.394531 55.007812 C 20.554688 54.769531 20.433594 54.375 20.433594 54.375 C 20.433594 54.375 20.832031 54.296875 21.027344 54.214844 C 21.226562 54.136719 21.464844 53.9375 21.464844 53.9375 L 21.859375 53.820312 L 22.335938 53.621094 L 22.023438 53.460938 C 22.023438 53.460938 22.027344 53.460938 22.105469 53.183594 C 22.183594 52.90625 22.351562 52.550781 22.351562 52.550781 L 22.5625 52.355469 L 22.5625 52.828125 L 22.785156 52.867188 L 22.808594 52.390625 L 22.730469 52.230469 L 22.890625 51.875 C 22.890625 51.875 23.324219 51.835938 23.523438 51.835938 C 23.71875 51.835938 23.800781 51.757812 23.800781 51.757812 L 23.996094 51.558594 L 24.511719 51.597656 L 24.789062 51.714844 C 24.789062 51.714844 24.75 51.28125 24.90625 51.242188 C 25.066406 51.199219 24.988281 51.042969 24.988281 50.84375 C 24.988281 50.644531 25.027344 50.527344 24.945312 50.328125 C 24.867188 50.128906 24.828125 49.890625 24.789062 49.574219 C 24.75 49.257812 24.398438 49.621094 24.472656 49.097656 C 24.5 48.886719 24.433594 48.382812 24.472656 48.148438 C 24.511719 47.910156 24.75 47.511719 25.027344 47.472656 C 25.304688 47.433594 25.34375 47.394531 25.5 47.3125 C 25.660156 47.234375 25.976562 46.917969 25.976562 46.917969 L 25.9375 47.273438 L 25.898438 47.671875 L 25.859375 48.265625 L 26.175781 48.464844 L 25.941406 48.664062 L 25.828125 48.898438 L 25.484375 49.21875 L 25.425781 49.523438 L 25.425781 50.011719 L 25.679688 50.253906 L 25.738281 50.613281 L 26.09375 50.742188 L 26.332031 50.839844 L 26.210938 51.191406 L 26.570312 51.191406 L 26.964844 50.878906 L 27.441406 50.765625 C 27.441406 50.765625 27.441406 50.765625 27.636719 50.921875 C 27.835938 51.082031 27.875 50.964844 28.113281 51.199219 C 28.351562 51.4375 28.546875 51.359375 28.546875 51.359375 L 28.429688 51.199219 C 28.429688 51.199219 28.90625 50.921875 29.101562 50.882812 C 29.300781 50.84375 29.539062 50.84375 29.695312 50.726562 C 29.855469 50.605469 29.972656 50.445312 30.410156 50.25 C 30.84375 50.050781 31.082031 50.167969 31.082031 50.167969 L 31.398438 50.765625 C 31.398438 50.765625 31.398438 50.765625 31.753906 50.605469 C 32.109375 50.445312 32.152344 50.050781 32.152344 50.050781 L 32.785156 50.128906 L 32.941406 49.851562 C 32.941406 49.851562 32.824219 48.859375 32.824219 48.621094 C 32.824219 48.382812 32.746094 47.949219 32.824219 47.789062 C 32.902344 47.628906 32.980469 47.3125 33.179688 47.15625 C 33.378906 46.996094 33.695312 46.878906 33.695312 46.878906 L 34.128906 47.273438 C 34.128906 47.273438 34.210938 47.589844 34.445312 47.671875 C 34.683594 47.75 34.804688 47.589844 34.804688 47.589844 C 34.804688 47.589844 34.960938 46.519531 34.960938 46.402344 C 34.960938 46.28125 34.882812 46.003906 34.882812 46.003906 L 34.648438 46.164062 C 34.648438 46.164062 34.457031 46.085938 34.378906 45.886719 C 34.296875 45.6875 34.507812 45.609375 34.507812 45.609375 L 34.421875 45.453125 L 34.421875 45.050781 L 34.789062 44.816406 L 35.394531 44.617188 L 35.832031 44.5 L 36.347656 44.617188 C 36.347656 44.617188 36.582031 44.699219 36.820312 44.738281 C 37.058594 44.777344 37.296875 44.664062 37.296875 44.664062 L 37.257812 44.394531 L 37.585938 44.363281 L 37.769531 44.363281 L 38.046875 44.113281 C 38.046875 44.113281 38.320312 44.140625 38.597656 44.019531 C 38.875 43.902344 38.039062 43.824219 38.039062 43.824219 L 37.554688 43.496094 L 37.554688 43.109375 L 37.089844 43.347656 L 36.664062 43.308594 L 36.027344 43.464844 L 35.476562 43.664062 L 34.605469 44.019531 L 34.089844 43.941406 L 33.535156 43.464844 L 33.019531 43.070312 L 32.941406 42.59375 L 33.0625 42 L 32.902344 41.402344 L 32.785156 40.53125 C 32.785156 40.53125 32.824219 40.253906 32.941406 40.09375 C 33.0625 39.9375 33.21875 39.9375 33.21875 39.9375 L 33.179688 39.738281 L 33.617188 39.578125 C 33.617188 39.578125 33.898438 39.144531 34.058594 38.984375 C 34.214844 38.824219 34.617188 38.191406 34.816406 37.992188 C 35.015625 37.792969 35.105469 37.398438 35.1875 37.277344 C 35.265625 37.160156 35.648438 37.308594 35.648438 37.308594 C 35.648438 37.308594 35.648438 37.316406 35.648438 37.160156 C 35.648438 37 35.660156 36.761719 35.582031 36.5625 C 35.503906 36.367188 35.316406 36.128906 35.199219 35.96875 C 35.078125 35.8125 34.839844 35.769531 34.566406 35.769531 C 34.289062 35.769531 34.050781 35.691406 33.8125 35.691406 C 33.574219 35.691406 33.496094 36.167969 33.257812 36.285156 C 33.019531 36.40625 33.257812 36.644531 33.0625 36.960938 C 32.863281 37.277344 32.980469 37.515625 32.980469 37.515625 C 32.980469 37.515625 33.140625 37.832031 33.019531 37.914062 C 32.902344 37.992188 32.746094 38.46875 32.585938 38.746094 C 32.429688 39.023438 31.992188 39.144531 31.757812 39.261719 C 31.519531 39.378906 31.320312 39.617188 31.125 39.855469 C 30.925781 40.09375 30.414062 40.648438 30.414062 40.648438 L 30.460938 41.046875 L 30.191406 41.800781 L 30.332031 42.914062 L 30.332031 43.269531 L 29.757812 43.808594 C 30.035156 43.847656 30.539062 43.269531 30.539062 43.269531 L 30.726562 43.269531 L 30.882812 43.488281 C 30.882812 43.488281 30.921875 43.703125 31.082031 43.863281 C 31.238281 44.023438 31.28125 44.257812 31.28125 44.257812 L 30.921875 44.734375 C 30.921875 44.734375 30.566406 44.695312 30.289062 44.65625 C 30.011719 44.617188 29.734375 44.65625 29.734375 44.65625 L 30.488281 44.972656 L 31.082031 44.894531 L 30.566406 45.332031 C 30.566406 45.332031 30.402344 45.449219 30.285156 45.527344 C 30.164062 45.609375 29.644531 45.726562 29.644531 45.726562 L 29.921875 45.875 C 29.921875 45.875 29.921875 46.085938 29.921875 46.203125 C 29.921875 46.320312 29.929688 46.71875 29.890625 46.957031 C 29.847656 47.195312 29.816406 47.394531 29.777344 47.671875 C 29.734375 47.949219 29.417969 48.703125 29.417969 48.703125 C 29.417969 48.703125 28.867188 48.664062 28.546875 48.820312 C 28.230469 48.980469 28.390625 49.496094 28.390625 49.496094 L 28.035156 49.574219 L 27.519531 49.457031 C 27.519531 49.457031 27.71875 49.257812 27.441406 49.21875 C 27.164062 49.179688 27.125 49.496094 27.125 49.496094 L 27.359375 49.734375 L 27.164062 49.933594 L 26.925781 49.890625 L 26.609375 49.8125 L 26.292969 49.296875 L 26.648438 49.21875 L 26.6875 48.902344 L 27.042969 48.941406 L 27.320312 48.703125 C 27.320312 48.703125 27.402344 48.464844 27.519531 48.265625 C 27.636719 48.066406 27.242188 47.828125 27.125 47.632812 C 27.003906 47.433594 26.847656 47.273438 26.847656 47.273438 L 26.808594 46.796875 C 26.808594 46.796875 26.847656 46.640625 26.808594 46.519531 C 26.765625 46.402344 26.570312 46.28125 26.570312 46.28125 L 26.449219 45.25 L 26.253906 44.972656 L 26.214844 44.65625 L 25.9375 44.417969 L 25.976562 44.855469 L 25.777344 45.25 L 25.539062 45.210938 L 25.34375 45.488281 C 25.34375 45.488281 24.710938 46.085938 24.550781 46.324219 C 24.394531 46.5625 23.800781 46.363281 23.5625 46.28125 C 23.324219 46.203125 22.96875 45.886719 22.847656 45.570312 C 22.730469 45.25 23.046875 45.449219 23.125 45.25 C 23.207031 45.054688 23.363281 44.933594 23.246094 44.855469 C 23.125 44.777344 22.886719 45.011719 22.808594 44.816406 C 22.730469 44.617188 22.691406 44.457031 22.808594 44.261719 C 22.929688 44.0625 22.652344 43.863281 22.691406 43.664062 C 22.730469 43.464844 22.609375 43.308594 22.570312 43.070312 C 22.53125 42.832031 22.730469 42.910156 22.691406 42.671875 C 22.652344 42.433594 22.570312 42.355469 22.652344 42.199219 C 22.730469 42.039062 22.609375 41.761719 22.609375 41.601562 C 22.609375 41.445312 22.691406 41.246094 22.691406 41.246094 C 22.691406 41.246094 23.007812 41.246094 23.207031 41.167969 C 23.402344 41.085938 23.402344 41.046875 23.441406 40.929688 C 23.480469 40.808594 23.523438 40.609375 23.523438 40.609375 C 23.523438 40.609375 23.839844 40.691406 24.074219 40.570312 C 24.3125 40.453125 23.878906 40.214844 23.839844 40.09375 C 23.796875 39.976562 24.117188 40.054688 24.117188 40.054688 C 24.117188 40.054688 24.234375 39.777344 24.550781 39.660156 C 24.867188 39.539062 24.75 39.5 24.90625 39.421875 C 25.066406 39.339844 25.261719 39.183594 25.382812 39.105469 C 25.5 39.023438 25.621094 39.421875 25.621094 39.421875 C 25.621094 39.421875 25.894531 39.421875 26.054688 39.300781 C 26.214844 39.183594 26.253906 39.144531 26.214844 38.984375 C 26.171875 38.824219 25.855469 39.183594 25.855469 39.183594 L 25.621094 38.824219 L 25.855469 38.351562 L 26.292969 37.636719 L 26.492188 37.753906 L 26.6875 37.515625 L 26.765625 37.042969 L 27.042969 36.921875 L 27.085938 36.683594 L 27.242188 36.445312 L 27.363281 36.050781 L 27.5625 35.8125 L 27.53125 35.535156 L 27.621094 35.175781 L 27.878906 35.058594 L 27.878906 34.621094 C 27.878906 34.621094 28.09375 34.265625 28.214844 34.183594 C 28.332031 34.105469 28.351562 33.867188 28.507812 33.710938 C 28.667969 33.550781 28.589844 33.3125 28.589844 33.3125 L 28.984375 33.035156 L 29.222656 33.15625 C 29.222656 33.15625 29.339844 32.957031 29.183594 32.878906 C 29.023438 32.796875 29.183594 32.878906 29.183594 32.757812 C 29.183594 32.640625 29.378906 32.285156 29.378906 32.285156 C 29.378906 32.285156 29.617188 32.171875 29.65625 32.011719 C 29.695312 31.855469 29.816406 31.742188 29.894531 31.585938 C 29.972656 31.425781 30.410156 31.722656 30.410156 31.722656 L 30.644531 31.523438 L 30.25 31.523438 L 29.972656 31.367188 C 29.972656 31.367188 30.371094 31.210938 30.488281 31.089844 C 30.605469 30.972656 30.644531 30.734375 30.644531 30.734375 L 30.566406 30.457031 L 30.84375 30.257812 L 30.960938 29.863281 L 31.320312 30.019531 L 31.28125 29.582031 L 31.753906 30.140625 C 31.753906 30.140625 31.792969 29.941406 31.554688 29.78125 C 31.320312 29.625 31.476562 29.226562 31.476562 29.226562 L 31.832031 29.148438 L 31.914062 29.664062 L 32.070312 28.988281 L 32.386719 28.871094 L 32.269531 29.664062 L 32.703125 28.949219 L 33.101562 28.753906 L 33.457031 29.109375 L 33.335938 28.914062 L 33.296875 28.644531 L 33.140625 28.457031 L 33.097656 28.242188 L 33.417969 28.242188 L 33.734375 28.339844 L 34.011719 28.355469 L 34.050781 28.511719 L 34.167969 28.710938 L 34.207031 28.3125 C 34.207031 28.3125 34.367188 28.117188 34.523438 27.957031 C 34.683594 27.796875 34.839844 27.839844 34.839844 27.839844 L 34.921875 27.5625 L 35.039062 27.402344 L 34.921875 27.125 L 35.316406 26.925781 L 35.515625 27.164062 L 35.710938 27.085938 C 35.710938 27.085938 35.910156 27.125 35.832031 27.242188 C 35.75 27.363281 35.511719 27.679688 35.472656 27.917969 C 35.433594 28.15625 35.355469 28.472656 35.355469 28.472656 L 35.589844 28.117188 C 35.589844 28.117188 35.980469 27.480469 36.0625 27.324219 C 36.140625 27.164062 36.410156 27.003906 36.410156 27.003906 L 36.328125 27.46875 L 36.328125 27.878906 L 36.574219 27.757812 L 36.703125 27.480469 L 36.898438 27.125 L 37.058594 26.648438 L 37.375 26.691406 L 37.53125 26.851562 L 37.414062 27.09375 L 37.214844 27.226562 L 37.414062 27.484375 L 37.347656 27.832031 L 37.574219 27.832031 L 37.769531 27.242188 L 38.003906 27.125 L 38.316406 27.363281 L 38.625 27.441406 L 38.800781 27.640625 L 39.054688 27.867188 L 39.054688 28.117188 C 39.054688 28.117188 39.085938 28.117188 38.925781 28.15625 C 38.769531 28.195312 38.441406 28.511719 38.441406 28.511719 L 37.691406 28.433594 L 37.96875 28.636719 L 38.285156 28.914062 L 38.5625 29.003906 L 38.324219 29.335938 L 38.800781 29.335938 L 38.875 29.199219 C 38.875 29.199219 39.117188 29.199219 39.234375 29.199219 C 39.351562 29.199219 39.589844 29.410156 39.589844 29.410156 L 39.628906 29.109375 L 39.863281 28.828125 L 40.179688 28.988281 L 40.492188 29.226562 L 40.320312 29.425781 L 39.875 29.214844 L 39.875 29.425781 L 40.207031 29.664062 L 40.542969 29.742188 L 40.738281 30.058594 L 41.015625 29.902344 L 41.332031 30.097656 L 41.925781 30.179688 L 41.964844 30.019531 C 41.964844 30.019531 42.480469 30.257812 42.796875 30.496094 C 43.113281 30.734375 43.152344 30.851562 43.390625 31.089844 C 43.628906 31.328125 43.984375 31.683594 43.984375 31.683594 L 44.339844 31.964844 L 44.695312 32.160156 L 44.933594 32.199219 L 45.289062 32.636719 L 45.527344 32.835938 L 45.726562 33.46875 L 45.84375 33.828125 C 45.84375 33.828125 45.6875 34.382812 45.289062 34.820312 C 44.894531 35.253906 44.378906 35.375 44.101562 35.414062 C 43.828125 35.453125 43.3125 35.214844 43.035156 35.136719 C 42.757812 35.058594 42.519531 34.976562 42.320312 34.898438 C 42.125 34.820312 41.808594 34.738281 41.648438 34.699219 C 41.492188 34.660156 41.492188 34.460938 41.371094 34.421875 C 41.253906 34.382812 40.898438 34.421875 40.699219 34.34375 C 40.5 34.265625 40.421875 33.949219 40.183594 33.710938 C 39.945312 33.472656 39.988281 33.871094 39.988281 33.871094 L 40.304688 34.511719 L 40.59375 34.800781 L 40.859375 34.800781 L 40.9375 35.066406 L 41.214844 35.253906 L 41.53125 35.453125 L 41.570312 35.730469 L 41.53125 36.367188 L 41.371094 36.605469 L 41.648438 37.316406 L 41.609375 37.792969 L 41.964844 38.109375 L 42.203125 38.070312 L 42.636719 38.542969 L 43.429688 38.898438 L 43.679688 38.761719 L 43.90625 38.761719 C 43.90625 38.761719 43.746094 38.527344 43.707031 38.332031 C 43.667969 38.132812 43.546875 37.941406 43.546875 37.941406 L 43.113281 37.941406 L 42.871094 37.519531 L 42.871094 37.199219 L 43.171875 36.882812 L 43.589844 37.199219 L 43.824219 37.515625 L 44.0625 37.359375 C 44.0625 37.359375 44.300781 37.476562 44.578125 37.636719 C 44.855469 37.792969 45.011719 37.753906 45.011719 37.753906 L 45.449219 37.792969 C 45.449219 37.792969 45.132812 36.882812 44.972656 36.761719 C 44.816406 36.644531 44.933594 36.167969 44.933594 36.167969 C 44.933594 36.167969 45.210938 35.929688 45.328125 35.769531 C 45.449219 35.613281 45.644531 35.492188 45.804688 35.414062 C 45.960938 35.335938 46.082031 35.253906 46.199219 35.097656 C 46.320312 34.9375 46.476562 34.699219 46.476562 34.699219 L 46.792969 34.9375 L 47.191406 35.097656 L 47.425781 35.414062 L 47.625 35.730469 C 47.625 35.730469 47.625 34.9375 47.742188 34.777344 C 47.863281 34.621094 47.785156 34.421875 47.824219 34.304688 C 47.863281 34.183594 47.902344 34.027344 47.824219 33.867188 C 47.742188 33.707031 47.585938 33.707031 47.585938 33.707031 C 47.585938 33.707031 47.425781 33.550781 47.46875 33.273438 C 47.507812 32.992188 47.585938 32.835938 47.625 32.597656 C 47.664062 32.359375 47.664062 31.882812 47.625 31.683594 C 47.585938 31.488281 47.347656 31.328125 47.347656 31.328125 L 47.703125 31.367188 L 48.574219 31.40625 L 48.890625 31.765625 L 49.167969 32.121094 L 49.089844 32.558594 C 49.089844 32.558594 48.457031 32.714844 48.335938 32.875 C 48.21875 33.035156 48.140625 33.152344 48.140625 33.152344 C 48.140625 33.152344 48.21875 33.429688 48.535156 33.789062 C 48.851562 34.144531 49.011719 34.144531 49.011719 34.144531 L 49.210938 34.421875 L 49.410156 34.261719 C 49.410156 34.261719 49.609375 34.183594 49.847656 34.066406 C 50.082031 33.945312 50.007812 34.105469 49.929688 33.746094 C 49.851562 33.390625 50.175781 33.035156 50.175781 33.035156 L 50.640625 32.863281 L 50.640625 32.636719 C 50.640625 32.636719 51.050781 32.4375 51.449219 32.160156 C 51.84375 31.882812 52.097656 31.726562 52.414062 31.527344 C 52.730469 31.328125 52.769531 31.527344 52.769531 31.527344 L 53.007812 31.644531 L 52.929688 31.210938 L 53.207031 31.050781 L 53.363281 31.167969 L 53.523438 30.851562 L 53.71875 30.695312 C 53.71875 30.695312 53.957031 30.851562 53.957031 30.972656 C 53.957031 31.089844 53.917969 31.328125 53.917969 31.488281 C 53.917969 31.644531 54.035156 31.804688 54.15625 31.804688 C 54.273438 31.804688 54.472656 31.921875 54.472656 31.921875 C 54.472656 31.921875 54.589844 31.726562 54.628906 31.566406 C 54.671875 31.40625 54.867188 31.328125 54.988281 31.328125 C 55.105469 31.328125 55.265625 31.210938 55.421875 31.25 C 55.582031 31.289062 55.738281 31.25 55.738281 31.25 L 56.132812 31.289062 L 56.410156 30.972656 L 56.648438 30.773438 L 57.164062 30.535156 L 57.402344 30.890625 C 57.402344 30.890625 57.636719 30.929688 57.441406 31.128906 C 57.242188 31.328125 57.320312 31.605469 57.480469 31.683594 C 57.636719 31.765625 57.636719 31.644531 57.796875 31.40625 C 57.953125 31.167969 57.757812 31.011719 57.757812 31.011719 C 57.757812 31.011719 57.996094 30.972656 58.191406 30.890625 C 58.390625 30.8125 58.351562 30.296875 58.351562 30.296875 C 58.351562 30.296875 58.152344 29.699219 58.074219 29.582031 C 57.996094 29.464844 58.035156 29.265625 58.195312 29.183594 C 58.351562 29.105469 58.511719 28.988281 58.511719 28.988281 L 59.027344 29.183594 L 59.746094 29.261719 L 60.152344 29.453125 L 60.445312 29.601562 L 60.816406 29.851562 C 60.816406 29.851562 60.675781 30.113281 60.726562 30.527344 Z M 57.984375 29.207031 L 58.101562 29.035156 C 58.101562 29.035156 57.878906 28.742188 57.8125 28.609375 C 57.746094 28.476562 57.625 28.382812 57.5625 28.34375 C 57.496094 28.304688 57.46875 28.316406 57.414062 28.199219 C 57.363281 28.078125 57.296875 28.164062 57.269531 28.097656 C 57.242188 28.03125 57.191406 27.96875 57.191406 27.96875 L 57.058594 27.96875 C 57.058594 27.96875 56.925781 28.1875 56.886719 28.1875 C 56.847656 28.1875 57.015625 28.296875 57.015625 28.296875 L 56.777344 28.25 L 56.777344 28.394531 C 56.777344 28.394531 56.925781 28.59375 56.9375 28.632812 C 56.949219 28.671875 57.0625 28.859375 57.0625 28.859375 C 57.0625 28.859375 57.195312 28.871094 57.234375 28.882812 C 57.273438 28.898438 57.542969 28.976562 57.566406 29.015625 C 57.59375 29.058594 57.558594 29.148438 57.558594 29.148438 C 57.558594 29.148438 57.679688 29.214844 57.71875 29.230469 C 57.757812 29.242188 57.984375 29.207031 57.984375 29.207031 Z M 51.460938 30.433594 L 51.460938 30.273438 L 51.421875 30.113281 L 51.390625 30.179688 L 51.347656 30.074219 C 51.347656 30.074219 51.128906 29.851562 51.039062 29.769531 C 50.945312 29.691406 50.855469 29.613281 50.855469 29.613281 L 50.683594 29.675781 L 50.574219 29.636719 C 50.574219 29.636719 50.382812 29.863281 50.328125 30.019531 C 50.277344 30.179688 50.199219 30.390625 50.222656 30.484375 C 50.25 30.578125 50.199219 30.75 50.199219 30.816406 C 50.199219 30.882812 50.265625 30.988281 50.265625 30.988281 C 50.265625 30.988281 50.277344 30.761719 50.34375 30.816406 C 50.410156 30.867188 50.460938 30.972656 50.460938 30.972656 L 50.59375 30.972656 L 50.726562 31.027344 C 50.726562 31.027344 50.84375 30.914062 50.910156 30.902344 C 50.976562 30.886719 51.121094 30.878906 51.203125 30.746094 C 51.28125 30.613281 51.363281 30.390625 51.402344 30.390625 C 51.441406 30.390625 51.460938 30.433594 51.460938 30.433594 Z M 17.34375 46.960938 C 17.210938 46.933594 16.710938 47.066406 16.710938 47.066406 L 16.789062 46.855469 L 16.710938 46.695312 L 17.105469 46.324219 L 17.316406 46.0625 L 17.292969 45.796875 C 17.292969 45.796875 16.789062 45.851562 16.683594 45.875 C 16.578125 45.902344 16.15625 45.875 16.15625 45.875 L 16.023438 46.273438 L 15.839844 46.429688 L 15.945312 46.617188 L 15.628906 46.882812 L 15.601562 47.277344 L 15.8125 47.410156 L 15.601562 47.964844 L 15.445312 48.152344 L 15.683594 48.363281 L 15.945312 48.257812 C 15.945312 48.257812 15.917969 48.546875 15.8125 48.839844 C 15.707031 49.128906 15.683594 49.550781 15.683594 49.550781 L 15.789062 49.578125 L 15.917969 48.890625 L 16.050781 48.707031 L 16.078125 48.996094 L 16.210938 48.8125 L 16.261719 49.023438 L 16.210938 49.3125 C 16.210938 49.3125 16.289062 49.496094 16.261719 49.601562 C 16.234375 49.707031 16.128906 49.917969 16.105469 50.074219 C 16.078125 50.234375 16.210938 50.335938 16.210938 50.335938 C 16.210938 50.335938 16.210938 50.324219 16.316406 50.296875 C 16.421875 50.273438 16.550781 50.238281 16.550781 50.238281 C 16.550781 50.238281 16.738281 50.238281 16.894531 50.238281 C 17.054688 50.238281 17.105469 50.09375 17.105469 50.09375 L 17.292969 50.160156 C 17.292969 50.160156 17.292969 50.160156 17.1875 50.238281 C 17.082031 50.320312 17.054688 50.636719 17.054688 50.769531 C 17.054688 50.902344 17.316406 51.007812 17.316406 51.007812 C 17.316406 51.007812 17.582031 50.925781 17.554688 51.035156 C 17.527344 51.140625 17.503906 51.402344 17.503906 51.484375 C 17.503906 51.5625 17.421875 51.851562 17.421875 51.851562 C 17.421875 51.851562 17.160156 51.851562 16.921875 51.957031 C 16.683594 52.066406 16.472656 52.355469 16.472656 52.355469 C 16.472656 52.355469 16.632812 52.355469 16.710938 52.328125 C 16.789062 52.300781 16.816406 52.726562 16.816406 52.726562 L 16.710938 52.992188 L 15.972656 53.464844 L 16.234375 53.679688 L 16.472656 53.519531 L 16.5 53.652344 L 16.710938 53.785156 L 16.894531 53.679688 L 17.160156 53.914062 L 17.34375 53.863281 L 17.660156 53.597656 L 17.449219 54.074219 L 16.867188 54.179688 L 16.472656 54.417969 L 15.734375 55.238281 C 15.734375 55.238281 15.917969 55.265625 16 55.265625 C 16.078125 55.265625 16.289062 55.078125 16.445312 55.027344 C 16.605469 54.972656 16.816406 55.027344 17 55 C 17.183594 54.972656 17.183594 54.65625 17.183594 54.65625 L 17.527344 54.523438 L 17.660156 54.734375 C 17.660156 54.734375 17.898438 54.683594 18.136719 54.578125 C 18.375 54.472656 18.425781 54.550781 18.714844 54.550781 C 19.007812 54.550781 19.164062 54.523438 19.558594 54.496094 C 19.957031 54.472656 20.195312 54.179688 20.195312 54.023438 C 20.195312 53.863281 19.851562 53.941406 19.851562 53.941406 L 19.929688 53.625 C 19.929688 53.625 20.300781 53.308594 20.300781 53.230469 C 20.300781 53.148438 20.511719 52.804688 20.457031 52.648438 C 20.40625 52.488281 20.195312 52.410156 20.007812 52.332031 C 19.824219 52.253906 19.664062 52.519531 19.664062 52.519531 L 19.324219 52.445312 C 19.324219 52.445312 19.453125 52.375 19.558594 52.164062 C 19.558594 52.164062 19.535156 51.894531 19.453125 51.8125 C 19.375 51.734375 19.269531 51.601562 19.269531 51.601562 L 19.453125 51.601562 C 19.453125 51.601562 19.269531 51.160156 19.191406 51.027344 C 19.113281 50.894531 18.980469 50.636719 18.847656 50.558594 C 18.714844 50.476562 18.636719 50.371094 18.503906 50.1875 C 18.371094 50.003906 18.292969 49.421875 18.292969 49.421875 L 17.820312 49.023438 L 17.503906 48.96875 C 17.503906 48.96875 17.238281 48.945312 17.34375 48.8125 C 17.449219 48.679688 17.632812 48.628906 17.632812 48.628906 L 17.421875 48.363281 L 17.632812 48.335938 C 17.632812 48.335938 17.84375 48.074219 17.898438 47.992188 C 17.949219 47.914062 18.03125 47.570312 18.03125 47.464844 C 18.03125 47.359375 18.160156 47.257812 18.160156 47.257812 L 18.082031 47 M 15.535156 50.4375 C 15.535156 50.4375 15.589844 50.320312 15.628906 50.214844 C 15.667969 50.109375 15.523438 50.027344 15.457031 49.910156 C 15.390625 49.789062 15.261719 49.816406 15.128906 49.832031 C 14.996094 49.84375 14.824219 49.949219 14.824219 49.949219 C 14.824219 49.949219 14.835938 49.832031 14.8125 49.738281 C 14.785156 49.644531 14.667969 49.671875 14.601562 49.738281 C 14.535156 49.804688 14.546875 50.027344 14.546875 50.027344 L 14.46875 49.777344 C 14.46875 49.777344 14.375 49.804688 14.269531 49.804688 C 14.164062 49.804688 14.136719 49.910156 14.03125 49.976562 C 13.925781 50.042969 13.992188 50.160156 13.875 50.265625 C 13.753906 50.371094 13.796875 50.476562 13.914062 50.476562 C 14.03125 50.476562 14.058594 50.464844 14.113281 50.519531 C 14.164062 50.570312 13.992188 50.691406 13.914062 50.730469 C 13.835938 50.769531 13.863281 50.886719 13.863281 50.886719 C 13.863281 50.886719 13.503906 50.863281 13.453125 50.847656 C 13.398438 50.835938 13.269531 50.820312 13.121094 50.847656 C 12.976562 50.875 13.054688 51.125 13.054688 51.125 L 12.9375 51.164062 C 12.9375 51.164062 12.9375 51.246094 13.109375 51.257812 C 13.28125 51.273438 13.265625 51.351562 13.214844 51.363281 C 13.160156 51.378906 13.070312 51.523438 12.949219 51.65625 C 12.832031 51.789062 12.976562 51.800781 13.03125 51.867188 C 13.082031 51.933594 13.109375 51.867188 13.175781 51.867188 C 13.242188 51.867188 13.28125 51.984375 13.28125 51.984375 C 13.28125 51.984375 13.386719 51.984375 13.53125 51.960938 C 13.675781 51.933594 13.703125 52.039062 13.519531 52.105469 C 13.332031 52.171875 13.292969 52.449219 13.292969 52.449219 L 13.148438 52.648438 L 13.453125 52.582031 L 13.675781 52.433594 L 13.691406 52.527344 L 13.78125 52.621094 L 13.175781 52.738281 L 13.097656 53.003906 C 13.097656 53.003906 12.964844 52.992188 12.804688 53.03125 C 12.648438 53.070312 12.765625 53.203125 12.765625 53.203125 C 12.765625 53.203125 12.765625 53.203125 12.925781 53.1875 C 13.082031 53.175781 13.03125 53.214844 12.9375 53.253906 C 12.84375 53.292969 12.78125 53.464844 12.78125 53.464844 L 12.910156 53.53125 C 12.910156 53.53125 12.898438 53.464844 13.097656 53.453125 C 13.292969 53.441406 12.925781 53.691406 12.925781 53.691406 C 12.925781 53.691406 12.964844 53.636719 13.1875 53.597656 C 13.414062 53.558594 13.136719 53.730469 13.136719 53.730469 L 13.121094 53.835938 L 13.464844 53.757812 L 13.914062 53.597656 L 14.125 53.492188 L 14.441406 53.28125 C 14.441406 53.28125 14.601562 53.203125 14.785156 53.121094 C 14.96875 53.042969 15.234375 53.148438 15.234375 53.148438 C 15.234375 53.148438 15.285156 52.964844 15.285156 52.832031 C 15.285156 52.699219 15.523438 52.277344 15.441406 52.117188 C 15.363281 51.960938 15.414062 51.640625 15.414062 51.640625 L 15.324219 51.191406 L 15.609375 50.953125 L 15.746094 50.796875 L 15.746094 50.585938 C 15.746094 50.359375 15.535156 50.4375 15.535156 50.4375 Z M 15.179688 47.371094 L 15.339844 47.59375 L 15.523438 47.570312 L 15.5625 47.660156 L 15.667969 47.488281 C 15.667969 47.488281 15.578125 47.464844 15.511719 47.421875 C 15.445312 47.382812 15.496094 47.304688 15.40625 47.171875 C 15.3125 47.039062 15.246094 46.921875 15.246094 46.921875 L 15.257812 47.144531 L 15.128906 47.121094 L 15.035156 47.277344 Z M 14.863281 46.820312 L 15.035156 46.660156 L 15.195312 46.59375 L 15.234375 46.367188 L 15.378906 46.285156 L 15.378906 46.023438 L 15.0625 46.21875 L 15.0625 46.351562 L 14.90625 46.285156 C 14.90625 46.285156 14.8125 46.40625 14.851562 46.511719 C 14.890625 46.617188 14.863281 46.820312 14.863281 46.820312 Z M 14.511719 47.011719 C 14.484375 47.121094 14.75 47.09375 14.75 47.09375 L 14.75 46.988281 C 14.75 46.988281 14.539062 46.90625 14.511719 47.011719 Z M 15.367188 48.402344 C 15.472656 48.46875 15.339844 48.625 15.339844 48.625 C 15.472656 48.691406 15.65625 48.496094 15.65625 48.496094 L 15.445312 48.296875 C 15.273438 48.191406 15.257812 48.335938 15.367188 48.402344 Z M 15.207031 49.105469 L 15.179688 49.28125 L 15.285156 49.28125 L 15.378906 49.371094 L 15.445312 49.273438 L 15.390625 49.0625 Z M 25.613281 49.675781 C 25.613281 49.703125 25.675781 49.773438 25.710938 49.789062 C 25.746094 49.808594 25.78125 49.886719 25.796875 49.914062 C 25.816406 49.941406 25.851562 49.90625 25.921875 49.90625 C 25.992188 49.90625 26.007812 49.964844 26.085938 49.976562 C 26.167969 49.984375 26.21875 49.90625 26.21875 49.90625 L 26.253906 49.71875 C 26.253906 49.71875 26.191406 49.605469 26.175781 49.5 C 26.15625 49.394531 26.070312 49.324219 26.070312 49.324219 C 26.070312 49.324219 26.070312 49.421875 26.042969 49.421875 C 26.015625 49.421875 25.957031 49.386719 25.886719 49.375 C 25.816406 49.367188 25.78125 49.402344 25.71875 49.4375 C 25.65625 49.472656 25.578125 49.445312 25.578125 49.445312 C 25.578125 49.445312 25.613281 49.648438 25.613281 49.675781 Z M 30.960938 47.675781 C 30.96875 47.648438 31.199219 47.367188 31.199219 47.367188 L 31.3125 47.242188 C 31.3125 47.242188 31.3125 46.988281 31.332031 46.917969 C 31.347656 46.847656 31.402344 46.757812 31.402344 46.757812 L 31.382812 46.609375 C 31.382812 46.609375 31.367188 46.722656 31.304688 46.703125 C 31.242188 46.6875 31.285156 46.609375 31.207031 46.652344 C 31.128906 46.695312 31.03125 46.800781 30.976562 46.871094 C 30.925781 46.941406 30.890625 47.011719 30.871094 47.136719 C 30.855469 47.261719 30.800781 47.402344 30.855469 47.507812 C 30.90625 47.613281 30.90625 47.710938 30.890625 47.738281 C 30.871094 47.761719 30.960938 47.675781 30.960938 47.675781 Z M 33.28125 45.910156 C 33.28125 45.910156 33.292969 46.167969 33.34375 46.203125 C 33.398438 46.238281 33.449219 46.28125 33.460938 46.34375 C 33.46875 46.40625 33.398438 46.554688 33.398438 46.554688 C 33.398438 46.554688 33.582031 46.449219 33.625 46.148438 C 33.625 46.148438 33.730469 46.210938 33.757812 46.210938 C 33.785156 46.210938 33.882812 46.089844 33.90625 46.078125 C 33.933594 46.070312 34.074219 46.050781 34.09375 46.015625 C 34.109375 45.980469 34.164062 45.925781 34.164062 45.925781 L 33.976562 45.730469 C 33.976562 45.730469 33.660156 45.730469 33.625 45.730469 C 33.589844 45.730469 33.546875 45.828125 33.546875 45.828125 L 33.496094 45.902344 L 33.371094 45.886719 Z M 33.414062 45.410156 L 33.617188 45.417969 L 33.660156 45.613281 C 33.660156 45.613281 33.792969 45.578125 33.8125 45.550781 C 33.828125 45.523438 33.925781 45.507812 33.96875 45.480469 C 34.011719 45.453125 34.066406 45.382812 33.96875 45.320312 C 33.871094 45.257812 33.871094 45.214844 33.792969 45.1875 C 33.714844 45.164062 33.730469 45.136719 33.660156 45.222656 C 33.589844 45.3125 33.554688 45.339844 33.476562 45.355469 C 33.398438 45.375 33.414062 45.410156 33.414062 45.410156 Z M 31.882812 43.902344 C 31.882812 43.902344 31.980469 43.945312 32.050781 43.980469 C 32.121094 44.015625 32.164062 43.980469 32.164062 43.980469 C 32.164062 43.980469 32.105469 43.945312 32.078125 43.882812 C 32.050781 43.824219 32.085938 43.804688 32.113281 43.777344 C 32.140625 43.753906 32.210938 43.664062 32.15625 43.609375 C 32.105469 43.558594 31.972656 43.503906 31.972656 43.503906 L 31.882812 43.574219 L 31.929688 43.664062 L 31.875 43.679688 Z M 26.5 50.265625 L 26.644531 50.410156 C 26.644531 50.410156 26.710938 50.386719 26.75 50.359375 C 26.792969 50.332031 26.882812 50.371094 26.882812 50.371094 L 26.816406 50.214844 C 26.816406 50.214844 26.75 50.148438 26.699219 50.148438 C 26.644531 50.148438 26.582031 50.109375 26.539062 50.09375 C 26.5 50.082031 26.394531 50.082031 26.433594 50.121094 C 26.476562 50.160156 26.410156 50.238281 26.410156 50.238281 Z M 26.222656 50.292969 C 26.304688 50.238281 26.394531 49.816406 26.394531 49.816406 L 26.289062 49.894531 C 26.289062 49.894531 26.15625 50.066406 26.144531 50.121094 C 26.132812 50.175781 26.160156 50.28125 26.160156 50.28125 C 26.160156 50.28125 26.144531 50.347656 26.222656 50.292969 Z M 26.871094 50.082031 C 26.84375 50.121094 26.964844 50.253906 26.964844 50.253906 L 27.003906 50.453125 C 27.003906 50.453125 27.042969 50.359375 27.042969 50.304688 C 27.042969 50.253906 27.082031 50.175781 27.082031 50.175781 L 26.964844 50.082031 C 26.964844 50.082031 26.898438 50.042969 26.871094 50.082031 Z M 28.71875 49.738281 C 28.71875 49.738281 28.625 49.976562 28.769531 49.988281 C 28.914062 50.003906 28.914062 50.003906 28.914062 50.003906 C 28.914062 50.003906 28.96875 49.699219 28.71875 49.738281 Z M 25.921875 48.601562 L 25.988281 48.757812 C 25.988281 48.757812 26.199219 48.625 26.25 48.5625 C 26.304688 48.496094 26.210938 48.390625 26.199219 48.308594 C 26.183594 48.230469 25.988281 48.363281 25.988281 48.363281 M 25.550781 47.53125 L 25.839844 47.660156 L 26 47.371094 L 25.976562 46.917969 C 25.976562 46.917969 25.734375 47.011719 25.65625 47.054688 C 25.578125 47.09375 25.484375 47.25 25.484375 47.25 L 25.433594 47.382812 Z M 29.679688 30.933594 L 29.601562 30.949219 L 29.5625 31.105469 L 29.445312 31.160156 C 29.445312 31.160156 29.496094 30.90625 29.46875 30.855469 C 29.445312 30.800781 29.46875 30.65625 29.46875 30.65625 L 29.351562 30.671875 L 29.257812 30.972656 L 29.207031 31.199219 L 29.085938 31.398438 L 28.941406 31.515625 L 28.652344 31.597656 L 28.46875 31.726562 L 28.480469 31.941406 L 28.71875 31.832031 L 28.808594 31.753906 L 28.835938 31.898438 C 28.835938 31.898438 28.980469 31.714844 29.0625 31.660156 C 29.140625 31.609375 29.234375 31.4375 29.234375 31.503906 C 29.234375 31.570312 29.324219 31.675781 29.324219 31.675781 L 29.390625 31.515625 L 29.46875 31.421875 L 29.550781 31.542969 C 29.550781 31.542969 29.613281 31.464844 29.640625 31.398438 C 29.667969 31.332031 29.707031 31.34375 29.761719 31.304688 C 29.8125 31.265625 29.867188 31.226562 29.878906 31.144531 C 29.890625 31.066406 29.90625 30.921875 29.90625 30.921875 L 29.734375 30.789062 Z M 28.890625 31.265625 L 29.085938 31.121094 L 29.101562 30.828125 L 28.957031 30.617188 L 28.980469 30.761719 L 28.902344 30.816406 L 28.808594 30.75 L 28.652344 30.960938 L 28.585938 31.132812 L 28.613281 31.226562 L 28.769531 31.105469 Z M 28.152344 31.765625 C 28.058594 31.753906 28.003906 31.742188 27.992188 31.832031 C 27.980469 31.925781 27.898438 31.914062 27.875 31.980469 C 27.847656 32.046875 27.742188 32.058594 27.648438 32.070312 C 27.558594 32.085938 27.558594 32.203125 27.53125 32.363281 C 27.503906 32.519531 27.515625 32.535156 27.609375 32.46875 C 27.703125 32.402344 27.703125 32.28125 27.753906 32.242188 C 27.808594 32.203125 27.875 32.175781 27.875 32.175781 L 27.992188 32.191406 L 28.152344 32.109375 L 28.203125 32.003906 L 28.296875 31.980469 L 28.363281 31.859375 C 28.363281 31.859375 28.242188 31.78125 28.152344 31.765625 Z M 29.324219 30.300781 L 29.296875 30.511719 C 29.296875 30.511719 29.484375 30.550781 29.535156 30.417969 C 29.589844 30.285156 29.667969 30.035156 29.667969 30.035156 C 29.667969 30.035156 29.613281 29.890625 29.5625 29.941406 C 29.507812 29.996094 29.574219 30.046875 29.496094 30.074219 C 29.417969 30.101562 29.324219 30.300781 29.324219 30.300781 Z M 30.144531 30.425781 L 30.378906 30.355469 L 30.511719 30.15625 L 30.617188 30.195312 L 30.761719 30.113281 L 30.828125 29.824219 L 30.695312 29.585938 C 30.695312 29.585938 30.644531 29.464844 30.617188 29.507812 C 30.589844 29.546875 30.539062 29.703125 30.539062 29.703125 L 30.375 29.730469 L 30.195312 29.808594 L 30.195312 30.007812 L 30.1875 30.207031 Z M 30.90625 29.480469 L 31.105469 29.53125 L 31.34375 29.386719 L 31.4375 29.148438 L 31.410156 28.992188 L 31.304688 29.148438 L 31.199219 29.070312 L 31.171875 29.214844 L 31.039062 29.242188 L 31.015625 29.402344 Z M 31.382812 28.832031 C 31.382812 28.832031 31.59375 29.082031 31.671875 29.003906 C 31.753906 28.925781 31.84375 28.753906 31.84375 28.753906 L 31.726562 28.644531 L 31.605469 28.671875 C 31.605469 28.671875 31.566406 28.554688 31.527344 28.539062 C 31.488281 28.527344 31.332031 28.539062 31.332031 28.539062 L 31.371094 28.671875 Z M 33.507812 27.53125 L 33.574219 27.695312 C 33.574219 27.832031 33.707031 27.695312 33.707031 27.695312 L 33.835938 27.6875 L 33.917969 27.625 C 33.917969 27.625 34.023438 27.574219 34.0625 27.519531 C 34.101562 27.46875 34.101562 27.46875 34.101562 27.46875 L 33.941406 27.324219 L 33.902344 27.429688 L 33.8125 27.457031 L 33.769531 27.285156 C 33.769531 27.285156 33.730469 27.453125 33.652344 27.453125 C 33.574219 27.453125 33.507812 27.53125 33.507812 27.53125 Z M 34.023438 27.839844 C 34.023438 27.839844 34.101562 27.972656 34.085938 28.039062 C 34.074219 28.105469 34.113281 28.15625 34.179688 28.117188 C 34.246094 28.078125 34.363281 27.945312 34.390625 27.878906 C 34.417969 27.8125 34.351562 27.628906 34.351562 27.628906 C 34.351562 27.628906 34.234375 27.65625 34.195312 27.679688 C 34.152344 27.707031 34.023438 27.839844 34.023438 27.839844 Z M 34.511719 27.351562 L 34.617188 27.679688 L 34.722656 27.65625 C 34.722656 27.65625 34.800781 27.324219 34.511719 27.351562 Z M 33.863281 28.210938 C 34.035156 28.289062 33.980469 28.078125 33.980469 28.078125 L 33.757812 27.972656 C 33.664062 27.984375 33.691406 28.132812 33.863281 28.210938 Z M 25.242188 61.980469 L 25.121094 62.089844 L 24.855469 62.175781 L 24.785156 62.386719 L 24.855469 62.617188 L 24.890625 62.882812 L 24.996094 62.917969 L 25.015625 63.058594 L 25.226562 63.164062 C 25.226562 63.164062 25.277344 63.023438 25.332031 62.917969 C 25.382812 62.8125 25.488281 62.371094 25.4375 62.230469 C 25.382812 62.089844 25.347656 61.839844 25.347656 61.839844 Z M 24.558594 63.625 C 24.558594 63.625 24.523438 63.851562 24.664062 63.90625 C 24.804688 63.957031 24.714844 63.972656 24.734375 64.167969 C 24.75 64.363281 24.75 64.46875 24.734375 64.554688 C 24.714844 64.644531 24.679688 64.785156 24.679688 64.875 C 24.679688 64.960938 24.804688 65.15625 24.945312 65.28125 C 25.085938 65.402344 25.191406 65.121094 25.261719 65.015625 C 25.332031 64.910156 25.472656 65 25.472656 65 C 25.472656 65 25.542969 64.503906 25.542969 64.398438 C 25.542969 64.292969 25.488281 63.734375 25.4375 63.589844 C 25.382812 63.449219 25.226562 63.367188 25.15625 63.367188 C 25.085938 63.367188 24.890625 63.554688 24.820312 63.625 C 24.75 63.695312 24.628906 63.625 24.628906 63.625 Z M 27.335938 65.894531 C 27.335938 65.894531 27.230469 66.25 27.460938 66.335938 C 27.6875 66.425781 27.847656 66.460938 27.933594 66.546875 C 28.023438 66.636719 28.09375 66.726562 28.25 66.742188 C 28.410156 66.761719 28.480469 66.882812 28.605469 66.953125 C 28.726562 67.023438 28.992188 67.042969 28.992188 67.042969 C 28.992188 67.042969 29.132812 66.832031 29.0625 66.671875 C 28.992188 66.511719 28.992188 66.441406 29.042969 66.335938 C 29.097656 66.230469 29.203125 66.003906 29.203125 66.003906 L 29.253906 65.808594 C 29.253906 65.808594 29.097656 65.878906 28.992188 65.863281 C 28.886719 65.84375 28.761719 65.863281 28.675781 65.898438 C 28.585938 65.933594 28.304688 66.039062 28.214844 66.039062 C 28.128906 66.039062 28.109375 66.003906 28.058594 65.96875 C 28.003906 65.933594 27.882812 65.878906 27.828125 65.863281 C 27.777344 65.84375 27.671875 65.96875 27.601562 65.949219 C 27.53125 65.929688 27.335938 65.894531 27.335938 65.894531 Z M 20.949219 64.734375 L 21.125 64.785156 L 21.320312 64.945312 C 21.320312 64.945312 21.550781 64.769531 21.53125 64.699219 C 21.515625 64.625 21.410156 64.625 21.425781 64.519531 C 21.445312 64.414062 21.445312 64.414062 21.445312 64.414062 L 21.054688 64.519531 C 21.054688 64.519531 20.914062 64.699219 20.949219 64.734375 Z M 33.859375 66.007812 L 33.542969 65.898438 L 33.421875 65.789062 L 33.140625 65.949219 L 32.992188 65.949219 L 32.894531 66.101562 L 33.40625 66.378906 Z M 34.496094 67.960938 C 34.496094 67.960938 34.285156 68.171875 34.390625 68.222656 C 34.496094 68.277344 34.726562 68.222656 34.832031 68.242188 C 34.9375 68.257812 35.164062 68.3125 35.183594 68.398438 C 35.199219 68.488281 35.253906 68.488281 35.464844 68.453125 C 35.675781 68.417969 36.011719 68.382812 36.011719 68.382812 C 36.011719 68.382812 36.273438 68.1875 36.152344 68.257812 C 36.027344 68.328125 35.90625 68.257812 35.851562 68.222656 C 35.800781 68.1875 35.816406 68.207031 35.65625 68.222656 C 35.5 68.242188 35.394531 68.1875 35.324219 68.152344 C 35.253906 68.117188 35.269531 68.152344 35.113281 68.152344 C 34.953125 68.152344 34.847656 68.171875 34.847656 68.066406 C 34.847656 67.960938 34.742188 67.976562 34.742188 67.976562 L 34.636719 68.066406 Z M 56.214844 27.28125 C 56.214844 27.28125 55.464844 26.6875 55.382812 26.449219 C 55.304688 26.210938 55.148438 25.855469 55.066406 25.734375 C 54.988281 25.617188 55.105469 25.21875 54.988281 24.980469 C 54.871094 24.742188 54.910156 24.308594 54.871094 24.03125 C 54.828125 23.75 54.910156 23.75 55.027344 23.511719 C 55.148438 23.277344 55.34375 23.15625 55.382812 22.917969 C 55.421875 22.679688 55.542969 22.324219 55.542969 22.324219 L 55.105469 22.046875 L 54.789062 21.886719 L 54.433594 21.847656 L 54.117188 22.046875 L 53.601562 22.164062 C 53.601562 22.164062 53.285156 22.324219 53.324219 22.441406 C 53.367188 22.5625 53.285156 22.878906 53.285156 22.878906 L 52.929688 23.078125 L 53.050781 23.355469 L 53.246094 23.59375 L 52.890625 24.664062 L 52.652344 24.625 C 52.652344 24.625 52.335938 24.546875 52.335938 25.019531 C 52.335938 25.496094 52.613281 25.933594 52.734375 25.855469 C 52.851562 25.773438 53.089844 25.578125 53.089844 25.578125 L 53.285156 25.894531 L 53.601562 25.8125 C 53.601562 25.8125 53.523438 26.210938 53.683594 26.25 C 53.839844 26.289062 54.078125 26.609375 54.078125 26.609375 L 53.878906 26.6875 C 53.878906 26.6875 53.644531 27.042969 53.839844 27.125 C 54.039062 27.203125 54.394531 27.28125 54.394531 27.28125 L 54.632812 27.640625 C 54.632812 27.640625 54.988281 27.402344 55.105469 27.441406 C 55.226562 27.480469 55.542969 27.519531 55.542969 27.519531 C 55.542969 27.519531 55.699219 27.242188 55.78125 27.402344 C 55.859375 27.558594 55.976562 27.757812 55.976562 27.757812 C 55.976562 27.757812 56.175781 27.125 56.214844 27.28125 Z M 54.164062 21.730469 C 54.164062 21.730469 54.515625 21.492188 54.832031 21.691406 C 55.148438 21.886719 55.464844 22.046875 55.464844 22.046875 L 55.742188 22.125 L 55.898438 21.6875 L 55.859375 21.132812 L 56.136719 21.214844 L 56.015625 20.777344 L 56.292969 20.894531 L 56.375 20.5 L 56.136719 20.183594 L 56.414062 19.785156 L 56.570312 20.222656 L 57.007812 19.746094 L 56.769531 19.230469 L 57.085938 19.347656 L 57.285156 18.871094 L 57.5625 18.792969 L 57.957031 18.59375 L 58.195312 18.277344 L 58.15625 17.921875 C 58.15625 17.921875 58.3125 17.960938 58.550781 17.839844 C 58.789062 17.722656 59.222656 17.167969 59.222656 17.167969 C 59.222656 17.167969 59.621094 16.929688 59.738281 16.769531 C 59.855469 16.613281 60.171875 16.175781 60.171875 16.175781 C 60.171875 16.175781 60.210938 16.613281 60.609375 16.253906 C 61.003906 15.898438 61.398438 15.539062 61.558594 15.582031 C 61.714844 15.621094 62.152344 15.460938 62.351562 15.300781 C 62.546875 15.144531 62.785156 14.785156 62.945312 14.867188 C 63.101562 14.945312 63.457031 14.113281 63.457031 14.113281 L 63.578125 13.796875 C 63.578125 13.796875 63.578125 13.28125 63.457031 13.121094 C 63.339844 12.960938 62.863281 12.84375 62.863281 12.84375 L 62.390625 12.765625 L 62.074219 12.960938 L 61.558594 13.4375 C 61.558594 13.4375 61.558594 13.914062 61.441406 13.953125 C 61.320312 13.992188 61.125 14.269531 60.925781 14.3125 C 60.726562 14.351562 60.726562 14.507812 60.488281 14.550781 C 60.253906 14.589844 60.171875 14.628906 60.015625 14.667969 C 59.855469 14.707031 59.578125 14.867188 59.460938 14.867188 C 59.34375 14.867188 59.144531 14.707031 59.144531 14.707031 L 58.472656 14.667969 L 58.433594 15.144531 L 58.15625 15.382812 L 58.195312 15.105469 C 58.195312 15.105469 57.878906 15.222656 57.71875 15.421875 C 57.5625 15.621094 57.363281 15.699219 57.246094 15.738281 C 57.125 15.777344 56.730469 16.054688 56.769531 16.214844 C 56.808594 16.375 56.53125 16.492188 56.53125 16.492188 L 56.335938 17.007812 L 56.175781 17.246094 C 56.175781 17.246094 55.820312 17.207031 55.699219 17.363281 C 55.582031 17.523438 55.53125 17.683594 55.332031 17.722656 C 55.136719 17.761719 55.003906 17.601562 55.003906 17.601562 L 55.003906 18 C 55.003906 18 55.285156 18.039062 55.128906 18.355469 C 54.96875 18.675781 55.238281 18.675781 55.238281 18.675781 L 55.546875 18.871094 C 55.546875 18.871094 55.03125 18.832031 55.03125 18.992188 C 55.03125 19.148438 55.226562 19.46875 55.226562 19.46875 L 54.710938 19.507812 L 54.910156 19.824219 L 54.632812 19.863281 L 55.148438 20.300781 L 54.632812 20.0625 L 54.316406 20.339844 C 54.316406 20.339844 54.238281 20.5 54 20.695312 C 53.761719 20.894531 53.523438 20.933594 53.761719 21.09375 C 54 21.253906 54.195312 21.171875 54.394531 21.171875 C 54.59375 21.171875 53.933594 21.375 54.164062 21.730469 Z M 30.808594 2.445312 L 31.421875 2.769531 L 31.421875 3.113281 L 31.027344 3.363281 L 31.171875 3.800781 L 31.722656 3.957031 L 32.550781 3.800781 L 33.417969 3.679688 L 33.257812 4.117188 L 32.507812 4.035156 L 32.785156 4.433594 L 32.425781 4.472656 C 32.425781 4.472656 32.308594 4.195312 32.148438 4.273438 C 31.992188 4.355469 31.953125 4.550781 32.191406 4.75 C 32.425781 4.949219 32.664062 5.050781 32.664062 5.050781 L 33.21875 5.15625 L 33.941406 5.15625 C 33.941406 5.15625 33.8125 5.566406 33.972656 5.765625 C 34.128906 5.964844 34.566406 5.832031 34.683594 5.792969 C 34.800781 5.753906 34.882812 5.351562 35.039062 5.3125 C 35.199219 5.273438 35.433594 5.269531 35.433594 5.269531 L 35.871094 4.832031 C 35.871094 4.832031 35.753906 4.394531 35.988281 4.277344 C 36.226562 4.15625 36.503906 3.640625 36.503906 3.640625 L 36.742188 3.363281 C 36.742188 3.363281 36.703125 2.886719 36.742188 2.648438 L 36.464844 2.292969 L 35.675781 2.011719 L 34.964844 1.894531 L 34.964844 1.578125 L 34.765625 1.457031 L 34.425781 2.292969 C 34.425781 2.292969 34.039062 2.570312 34.082031 2.410156 C 34.121094 2.253906 33.925781 2.09375 34.125 1.972656 C 34.324219 1.855469 34.285156 1.261719 34.285156 1.261719 L 33.96875 0.984375 C 33.96875 0.984375 33.613281 1.140625 33.613281 1.378906 C 33.613281 1.617188 33.695312 2.09375 33.695312 2.09375 L 33.574219 2.648438 L 33.378906 2.210938 L 33.296875 1.894531 L 32.902344 2.09375 L 32.625 2.054688 L 32.664062 1.777344 C 32.664062 1.777344 32.269531 1.101562 31.914062 0.984375 L 31.792969 1.21875 L 32.109375 1.578125 L 31.875 2.09375 C 31.875 2.09375 31.515625 1.417969 31.515625 1.539062 C 31.515625 1.65625 31.4375 2.09375 31.4375 2.09375 L 30.9375 2.171875 Z M 27.203125 3.519531 C 27.203125 3.519531 26.648438 3.800781 26.488281 3.878906 C 26.332031 3.957031 26.214844 4.632812 26.214844 4.632812 C 26.214844 4.632812 26.214844 5.066406 26.253906 5.464844 C 26.292969 5.863281 26.53125 5.980469 26.53125 5.980469 L 26.6875 5.542969 L 27.003906 5.703125 L 26.925781 6.417969 L 27.164062 6.457031 L 27.242188 6.8125 L 26.609375 6.535156 L 26.886719 7.089844 C 26.886719 7.089844 26.808594 7.367188 26.964844 7.566406 C 27.125 7.765625 27.675781 7.886719 27.675781 7.886719 L 27.757812 8.082031 C 27.757812 8.082031 27.320312 8.203125 27.359375 8.320312 C 27.402344 8.441406 27.636719 8.679688 27.636719 8.679688 L 27.757812 8.917969 L 28.351562 8.835938 C 28.351562 8.835938 28.667969 8.402344 28.628906 8.203125 C 28.589844 8.003906 28.667969 7.6875 28.667969 7.6875 L 29.023438 7.410156 C 29.023438 7.410156 29.261719 6.972656 29.261719 7.289062 C 29.261719 7.605469 29.226562 7.964844 29.226562 7.964844 L 29.429688 8.28125 L 29.675781 7.84375 L 30.058594 7.398438 L 30.058594 7.726562 L 29.957031 8.203125 L 30.328125 8.359375 L 30.050781 8.441406 C 30.050781 8.441406 29.617188 8.558594 29.417969 8.597656 C 29.222656 8.636719 29.300781 8.917969 29.300781 8.917969 L 29.023438 9.074219 C 29.023438 9.074219 28.90625 9.390625 28.785156 9.511719 C 28.667969 9.628906 28.3125 9.550781 28.152344 9.472656 C 27.996094 9.390625 28.113281 9.75 28.113281 9.988281 C 28.113281 10.226562 28.152344 10.464844 28.152344 10.464844 C 28.152344 10.464844 28.507812 10.382812 28.746094 10.382812 C 28.984375 10.382812 29.140625 10.226562 29.261719 10.144531 C 29.378906 10.066406 29.5 10.144531 29.734375 10.1875 C 29.972656 10.226562 30.050781 9.988281 30.050781 9.988281 L 30.09375 10.34375 C 30.09375 10.34375 29.816406 10.503906 29.695312 10.464844 C 29.578125 10.421875 28.863281 10.742188 28.863281 10.742188 C 28.863281 10.742188 28.863281 10.898438 29.101562 10.9375 C 29.339844 10.980469 29.5 11.175781 29.5 11.175781 C 29.5 11.175781 28.746094 11.175781 28.628906 11.097656 C 28.507812 11.019531 28.351562 11.058594 28.351562 11.058594 C 28.351562 11.058594 28.390625 11.851562 28.507812 12.128906 C 28.628906 12.40625 28.984375 12.328125 28.984375 12.328125 L 29.0625 12.644531 C 29.0625 12.644531 29.417969 12.605469 29.65625 12.605469 C 29.894531 12.605469 29.773438 12.882812 29.773438 12.882812 L 29.339844 12.921875 C 29.339844 12.921875 29.578125 13.199219 29.734375 13.398438 C 29.894531 13.597656 29.933594 13.835938 29.933594 13.835938 L 30.171875 13.796875 C 30.171875 13.796875 30.210938 13.238281 30.328125 13.042969 C 30.449219 12.84375 30.367188 12.722656 30.410156 12.484375 C 30.449219 12.25 30.527344 11.453125 30.527344 11.453125 L 30.921875 11.21875 C 30.921875 11.21875 31.042969 10.1875 31.042969 9.988281 C 31.042969 9.789062 31.320312 9.550781 31.359375 9.433594 C 31.398438 9.3125 31.476562 8.835938 31.476562 8.597656 C 31.476562 8.359375 31.636719 8.164062 31.871094 7.925781 C 32.109375 7.6875 31.871094 7.925781 32.109375 7.84375 C 32.347656 7.765625 32.425781 7.566406 32.625 7.488281 C 32.824219 7.410156 32.941406 7.449219 32.941406 7.449219 L 33.101562 7.011719 C 33.101562 7.011719 32.785156 6.851562 32.425781 6.734375 C 32.070312 6.617188 32.070312 6.296875 31.914062 6.058594 C 31.753906 5.820312 31.359375 5.78125 31.359375 5.78125 C 31.359375 5.78125 31.359375 5.585938 31.398438 5.304688 C 31.4375 5.027344 31.238281 4.75 31.238281 4.632812 C 31.238281 4.511719 31.003906 4.433594 31.003906 4.433594 L 30.964844 4.871094 L 30.6875 5.148438 C 30.6875 5.148438 30.691406 4.550781 30.730469 4.234375 C 30.769531 3.917969 30.300781 3.164062 30.300781 3.164062 L 29.757812 2.6875 L 29.511719 3.351562 L 29.511719 3.800781 C 29.511719 3.800781 29.445312 4.355469 29.484375 4.949219 C 29.527344 5.542969 29.894531 6.574219 29.894531 6.574219 L 29.300781 5.863281 C 29.300781 5.863281 29.300781 5.664062 29.222656 5.425781 C 29.140625 5.1875 28.984375 4.117188 28.984375 3.996094 C 28.984375 3.878906 28.585938 3.679688 28.585938 3.679688 C 28.585938 3.679688 28.351562 4.234375 28.269531 4.511719 C 28.191406 4.789062 28.46875 5.742188 28.46875 5.742188 C 28.46875 5.742188 28.191406 5.347656 28.113281 5.1875 C 28.035156 5.027344 27.953125 5.066406 27.835938 4.949219 C 27.71875 4.832031 27.835938 4.550781 27.835938 4.550781 C 27.835938 4.550781 27.636719 4.59375 27.519531 4.632812 C 27.402344 4.671875 27.242188 4.472656 27.242188 4.472656 C 27.242188 4.472656 27.519531 4.273438 27.679688 4.15625 C 27.835938 4.035156 27.917969 4.074219 28.117188 3.953125 C 28.3125 3.835938 28.039062 3.476562 28.039062 3.476562 L 27.609375 3.667969 C 27.183594 3.972656 27.203125 3.519531 27.203125 3.519531 Z M 32.148438 6.296875 L 32.347656 6.417969 L 32.664062 6.21875 L 32.308594 5.941406 Z M 32.269531 8.203125 L 32.507812 8.359375 C 32.507812 8.359375 32.585938 8.996094 32.742188 9.035156 C 32.902344 9.074219 33.457031 8.835938 33.457031 8.835938 L 33.574219 8.28125 L 33.773438 8.121094 L 33.496094 7.84375 L 33.140625 7.804688 L 32.742188 7.886719 Z M 32.902344 9.796875 C 32.941406 9.917969 33.101562 9.996094 33.101562 9.996094 C 33.101562 9.996094 32.980469 10.445312 32.941406 10.722656 C 32.902344 11 32.625 11.21875 32.625 11.21875 L 32.835938 11.300781 C 32.835938 11.300781 33.21875 11.300781 33.457031 11.300781 C 33.695312 11.300781 33.734375 10.980469 33.734375 10.980469 L 33.890625 11.136719 L 33.652344 11.691406 L 33.890625 11.851562 L 34.289062 11.535156 L 34.523438 11.257812 C 34.523438 11.257812 34.800781 10.820312 34.921875 10.660156 C 35.039062 10.503906 35.277344 10.582031 35.277344 10.582031 L 34.960938 10.066406 L 34.605469 10.226562 C 34.605469 10.226562 34.328125 9.871094 34.128906 9.59375 C 33.929688 9.316406 34.207031 9.15625 34.207031 9.15625 L 33.929688 8.765625 L 33.730469 9.117188 L 33.21875 9.117188 L 32.667969 9.386719 C 32.667969 9.386719 32.863281 9.679688 32.902344 9.796875 Z M 26.214844 7.289062 C 26.410156 7.566406 26.214844 7.289062 26.292969 7.648438 C 26.371094 8.003906 26.371094 8.164062 26.53125 8.320312 C 26.6875 8.480469 26.726562 8.636719 26.808594 8.835938 C 26.886719 9.035156 27.082031 8.917969 27.082031 8.917969 C 27.082031 8.917969 26.925781 8.480469 26.808594 8.359375 C 26.6875 8.242188 26.449219 7.648438 26.449219 7.648438 L 26.214844 6.933594 C 26.132812 6.8125 26.015625 7.011719 26.214844 7.289062 Z M 4.726562 38.554688 L 4.796875 38.808594 C 4.796875 38.808594 5.082031 38.855469 5.257812 38.820312 C 5.433594 38.785156 5.644531 38.710938 5.769531 38.765625 C 5.890625 38.816406 6.050781 39.0625 6.15625 39.117188 C 6.261719 39.167969 6.382812 39.238281 6.507812 39.222656 C 6.628906 39.203125 6.839844 39.363281 6.964844 39.378906 C 7.089844 39.398438 7.210938 39.449219 7.335938 39.378906 C 7.457031 39.308594 7.667969 39.328125 7.792969 39.238281 C 7.914062 39.152344 8.089844 38.9375 8.144531 38.9375 C 8.195312 38.9375 8.285156 38.761719 8.285156 38.761719 L 8.558594 38.761719 C 8.558594 38.761719 8.953125 38.691406 9.058594 38.511719 C 9.164062 38.335938 9.410156 38.125 9.410156 38.125 C 9.410156 38.125 9.355469 37.835938 9.410156 37.890625 C 9.460938 37.941406 9.65625 38.132812 9.65625 38.132812 L 9.746094 38.164062 C 9.746094 38.164062 9.832031 38.023438 9.886719 38.003906 C 9.9375 37.988281 10.148438 37.652344 10.148438 37.652344 L 9.992188 37.632812 L 10.027344 37.476562 L 10.308594 37.371094 L 10.464844 37.195312 L 10.570312 37.050781 L 10.625 36.753906 L 10.484375 36.769531 L 10.429688 36.59375 C 10.429688 36.59375 10.527344 36.453125 10.476562 36.347656 C 10.421875 36.242188 10.292969 36.046875 10.292969 36.046875 L 10.292969 36.199219 L 10.019531 36.066406 L 10.019531 35.933594 L 9.808594 35.941406 C 9.808594 35.941406 9.828125 35.78125 9.847656 35.675781 C 9.863281 35.570312 9.855469 35.464844 9.855469 35.464844 C 9.855469 35.464844 9.703125 35.605469 9.6875 35.554688 C 9.667969 35.5 9.511719 35.378906 9.671875 35.21875 C 9.828125 35.058594 9.953125 34.953125 9.953125 34.953125 C 9.953125 34.953125 9.8125 34.832031 9.742188 34.902344 C 9.671875 34.972656 9.585938 35.058594 9.585938 35.058594 L 9.445312 35.113281 L 9.410156 35.273438 L 9.214844 35.09375 L 9.179688 34.917969 C 9.179688 34.917969 9.09375 34.917969 9.039062 34.832031 C 8.988281 34.742188 8.933594 34.699219 8.933594 34.699219 L 8.792969 34.800781 L 8.6875 34.800781 L 8.742188 35.277344 C 8.742188 35.277344 8.546875 35.386719 8.460938 35.371094 C 8.371094 35.351562 8.335938 35.257812 8.335938 35.257812 L 8.160156 35.222656 C 8.160156 35.222656 8.179688 35.503906 8.054688 35.519531 C 7.933594 35.539062 7.6875 35.273438 7.6875 35.273438 C 7.6875 35.273438 7.546875 35.359375 7.597656 35.484375 C 7.652344 35.605469 7.652344 36.011719 7.652344 36.011719 C 7.652344 36.011719 7.492188 35.816406 7.441406 35.675781 C 7.386719 35.535156 7.367188 35.359375 7.367188 35.359375 L 7.226562 35.273438 C 7.226562 35.273438 7.015625 35.378906 6.964844 35.394531 C 6.910156 35.414062 6.804688 35.519531 6.804688 35.519531 C 6.804688 35.519531 6.894531 35.941406 6.789062 35.925781 C 6.683594 35.90625 6.648438 35.730469 6.558594 35.625 C 6.472656 35.519531 6.3125 35.273438 6.261719 35.308594 C 6.207031 35.34375 6.191406 35.625 6.191406 35.695312 C 6.191406 35.765625 6.261719 36.136719 6.191406 36.242188 C 6.121094 36.347656 6.03125 36.066406 6.03125 36.066406 L 5.925781 36.171875 L 5.910156 36.398438 L 5.769531 36.46875 L 5.679688 36.683594 L 5.59375 36.417969 L 5.609375 36.207031 L 5.503906 36.136719 L 5.398438 35.941406 L 5.574219 35.800781 L 5.523438 35.554688 L 5.1875 35.164062 L 4.996094 35.042969 L 4.816406 34.867188 L 4.535156 34.832031 L 4.484375 34.953125 C 4.484375 34.953125 4.800781 35.042969 4.78125 35.09375 C 4.765625 35.148438 4.675781 35.148438 4.675781 35.148438 C 4.675781 35.148438 4.695312 35.253906 4.78125 35.324219 C 4.871094 35.394531 4.90625 35.695312 4.90625 35.695312 C 4.90625 35.695312 4.78125 35.695312 4.78125 35.640625 C 4.78125 35.589844 4.746094 35.570312 4.605469 35.535156 C 4.464844 35.5 4.394531 35.308594 4.394531 35.308594 C 4.394531 35.308594 4.253906 35.21875 4.203125 35.273438 C 4.148438 35.324219 4.042969 35.554688 4.042969 35.554688 C 4.042969 35.554688 4.0625 35.800781 4.117188 35.816406 C 4.167969 35.835938 4.296875 35.871094 4.296875 35.871094 L 4.296875 36.039062 C 4.296875 36.039062 4.246094 36.101562 4.195312 36.066406 C 4.140625 36.03125 3.855469 35.851562 3.855469 35.851562 C 3.855469 35.851562 4.054688 36.152344 4.003906 36.1875 C 3.949219 36.222656 3.652344 36.257812 3.652344 36.257812 L 4.058594 36.382812 C 4.058594 36.382812 4.394531 36.363281 4.484375 36.242188 C 4.570312 36.117188 4.730469 36.136719 4.730469 36.136719 L 4.976562 36.210938 L 5.011719 36.300781 L 5.207031 36.300781 C 5.207031 36.300781 5.257812 36.414062 5.136719 36.484375 C 5.011719 36.554688 4.855469 36.707031 4.855469 36.707031 L 5.011719 36.835938 L 5.277344 36.875 L 5.328125 36.785156 L 5.1875 37.070312 C 5.1875 37.070312 4.890625 37.085938 4.765625 37.070312 C 4.640625 37.050781 4.429688 37.140625 4.359375 37.15625 C 4.289062 37.175781 3.886719 37.300781 3.886719 37.300781 L 3.886719 37.441406 C 3.886719 37.441406 4.050781 37.351562 4.296875 37.335938 C 4.542969 37.316406 4.65625 37.371094 4.742188 37.351562 C 4.832031 37.335938 4.894531 37.546875 4.949219 37.632812 C 5 37.722656 5.078125 37.84375 5.078125 37.84375 L 5.273438 37.703125 L 5.132812 38.144531 L 5.328125 38.058594 L 5.292969 38.339844 L 4.960938 38.480469 L 4.890625 38.601562 Z M 4.726562 38.554688 " fill-opacity="1" fill-rule="nonzero"/></g></svg>