<svg xmlns="http://www.w3.org/2000/svg" xmlns:xlink="http://www.w3.org/1999/xlink" width="100" zoomAndPan="magnify" viewBox="0 0 75 74.999997" height="100" preserveAspectRatio="xMidYMid meet" version="1.0"><defs><clipPath id="id1"><path d="M 8.625 12 L 55 12 L 55 70 L 8.625 70 Z M 8.625 12 " clip-rule="nonzero"/></clipPath><clipPath id="id2"><path d="M 45 7.5 L 58.875 7.5 L 58.875 21 L 45 21 Z M 45 7.5 " clip-rule="nonzero"/></clipPath></defs><g clip-path="url(#id1)"><path fill="#004aad" d="M 21.140625 16.210938 C 19.398438 16.6875 19.476562 16.285156 18.183594 16.363281 C 16.636719 16.453125 16.082031 16.824219 14.359375 17.980469 C 13.898438 18.289062 12.808594 18.714844 12.402344 19.367188 C 11.992188 20.023438 13.105469 19.714844 12.941406 20.164062 C 12.5625 21.199219 11.511719 20.921875 10.917969 21.535156 C 9.960938 22.523438 11.484375 22.082031 11.957031 21.890625 C 11.917969 22.027344 11.875 22.144531 11.808594 22.289062 C 10.777344 22.84375 9.910156 23.246094 9.875 24.183594 C 9.855469 24.722656 10.34375 25.632812 11.277344 24.875 C 11.304688 26.1875 9.242188 26.121094 8.695312 27.175781 C 9.46875 26.921875 11.15625 25.640625 11.949219 25.144531 C 13.140625 24.394531 13.757812 23.605469 14.640625 22.570312 C 14.800781 22.722656 14.734375 23.476562 15 23.507812 C 15.691406 23.597656 16.089844 22.582031 16.628906 22.289062 C 18.074219 21.492188 17.65625 22.632812 18.570312 22.964844 C 18.953125 23.105469 19.566406 22.753906 19.925781 22.875 C 20.484375 23.0625 20.351562 23.347656 20.707031 23.777344 C 21.140625 24.300781 22.226562 24.84375 21.617188 25.769531 C 23.773438 25.765625 21.980469 27.339844 21.777344 28.339844 C 21.648438 28.988281 21.890625 29.785156 21.792969 30.464844 C 21.65625 31.398438 21.523438 31.621094 21.902344 32.445312 C 22.460938 33.648438 23.121094 34.515625 23.511719 35.847656 C 23.882812 37.117188 24.554688 38.722656 25.648438 39.582031 C 25.898438 38.242188 24.503906 37.492188 24.773438 36.003906 C 25.300781 36.136719 25.898438 37.941406 26.179688 38.5 C 26.578125 39.285156 26.777344 40.566406 27.628906 41.28125 C 28.570312 42.070312 29.925781 41.761719 30.945312 42.269531 C 31.476562 42.527344 31.679688 43.070312 32.175781 43.285156 C 32.722656 43.53125 33.617188 43.292969 34.070312 43.691406 C 34.996094 44.515625 34.234375 45.710938 36.089844 45.976562 C 37.445312 46.171875 38.667969 45.066406 37.929688 47.050781 C 37.539062 48.097656 36.332031 48.457031 36.136719 49.441406 C 35.953125 50.375 36.441406 52.007812 36.832031 52.707031 C 37.527344 53.953125 38.605469 55.722656 40.003906 55.796875 C 40.476562 56.875 39.953125 57.90625 39.84375 58.882812 C 39.71875 59.957031 40.144531 61.308594 39.785156 62.304688 C 39.339844 63.542969 38.859375 63.625 39.253906 64.984375 C 39.398438 65.488281 39.714844 65.359375 39.679688 65.960938 C 39.65625 66.351562 39.046875 66.78125 39.066406 67.355469 C 39.09375 68.335938 40.550781 70.496094 40.746094 69.507812 C 41.019531 68.113281 41.449219 66.960938 41.597656 66.472656 C 41.710938 66.109375 41.71875 65.101562 41.980469 64.582031 C 42.085938 64.371094 42.699219 63.746094 42.878906 63.605469 C 43.898438 62.820312 44.085938 62.820312 44.832031 61.714844 C 44.914062 61.589844 45.480469 61.070312 45.488281 60.925781 C 46.964844 59.972656 47.773438 57.636719 49.054688 56.632812 C 50.378906 55.597656 50.609375 56.171875 51.167969 54.476562 C 51.535156 53.359375 51.582031 52.230469 52.589844 51.425781 C 53.355469 50.8125 55.347656 50.339844 54.179688 49.023438 C 53.574219 48.332031 52.117188 49.007812 51.117188 48.535156 C 50.710938 48.34375 50.511719 47.863281 50.070312 47.710938 C 49.566406 47.539062 48.605469 47.871094 48.171875 47.648438 C 47.554688 47.328125 47.859375 46.914062 47.582031 46.46875 C 46.988281 45.511719 47.765625 45.96875 46.644531 45.4375 C 46 45.136719 45.710938 45.542969 45.070312 44.980469 C 44.675781 44.636719 44.769531 43.753906 44.242188 43.453125 C 43.476562 43.015625 41.613281 43.558594 40.757812 43.675781 C 39.996094 43.777344 39.753906 43.667969 39.121094 44.023438 C 38.554688 44.339844 39.246094 44.898438 38.242188 45.070312 C 38.011719 45.109375 37.359375 44.449219 36.917969 44.445312 C 36.292969 44.4375 35.761719 44.695312 35.300781 45.023438 C 34.808594 44.148438 35.746094 43.050781 35.257812 42.382812 C 34.433594 41.257812 33.777344 42.644531 33.878906 40.835938 C 33.933594 39.882812 34.925781 39.125 33.203125 39.898438 C 32.609375 40.167969 31.996094 41.855469 30.835938 40.816406 C 29.300781 39.445312 31.398438 36.992188 32.636719 36.390625 C 33.421875 36.011719 34.863281 35.523438 35.742188 35.988281 C 36.570312 36.425781 36.277344 37.820312 37.546875 37.5625 C 37.597656 36.636719 37.253906 35.160156 37.613281 34.308594 C 38.105469 33.144531 39.363281 33.425781 39.96875 32.625 C 40.316406 32.160156 40 31.484375 40.25 31.085938 C 40.613281 30.507812 40.8125 30.722656 41.238281 30.332031 C 41.683594 29.921875 41.867188 30.210938 42.214844 29.585938 C 42.421875 29.214844 42.363281 28.390625 42.378906 27.960938 C 43.320312 27.671875 44.378906 27.628906 44.503906 28.703125 C 45.90625 28.261719 45.035156 26.625 44.578125 25.804688 C 45.550781 24.445312 46.953125 25.4375 46.832031 26.851562 C 47.785156 27.207031 49.667969 27.421875 49.230469 26.007812 C 46.414062 24.894531 48.984375 24.609375 47.949219 22.769531 C 47.644531 22.222656 46.703125 21.988281 46.339844 21.429688 C 45.957031 20.839844 45.996094 19.695312 45.757812 19.007812 C 45.035156 19.070312 44.761719 19.730469 43.878906 19.550781 C 43.730469 18.328125 42.070312 17.066406 40.953125 18.246094 C 39.839844 19.421875 41.1875 21.214844 41.4375 22.3125 C 39.972656 22.378906 40.261719 23.949219 38.945312 23.597656 C 38.910156 22.945312 38.933594 22.265625 38.898438 21.617188 C 36.972656 21.523438 34.925781 21.285156 35.542969 18.957031 C 35.871094 17.707031 36.382812 18.210938 37.398438 17.792969 C 38.371094 17.398438 38.238281 16.933594 38.957031 16.421875 C 39.765625 15.84375 40.371094 16.425781 40.558594 15.171875 C 40.695312 14.25 40.394531 14.011719 39.476562 13.910156 C 38.570312 13.8125 38.976562 14.753906 37.902344 13.824219 C 37.28125 13.285156 37.65625 12.539062 36.53125 12.421875 C 36.191406 13.035156 36.304688 13.855469 36.40625 14.511719 C 35.472656 14.820312 32.523438 13.789062 32.128906 14.429688 C 31.636719 16.28125 30.464844 14.964844 29.640625 14.667969 C 28.667969 14.316406 27.605469 14.519531 26.5625 14.570312 C 25.449219 14.628906 24.859375 14.847656 23.734375 15.265625 C 22.675781 15.660156 22.65625 15.4375 21.726562 15.890625 C 21.492188 16.019531 21.375 16.082031 21.140625 16.210938 " fill-opacity="1" fill-rule="nonzero"/></g><g clip-path="url(#id2)"><path fill="#004aad" d="M 49.34375 8.15625 C 48.8125 8.367188 48.09375 7.507812 47.375 7.503906 C 47.234375 7.503906 47.128906 7.925781 46.851562 7.984375 C 46.5625 8.042969 46.09375 7.988281 45.726562 7.902344 C 45.867188 8.175781 45.894531 8.609375 46.0625 8.875 C 45.761719 8.769531 45.371094 8.871094 45.070312 8.773438 C 45.148438 9.832031 45.457031 10.03125 46.285156 10.511719 C 47.210938 11.050781 47.542969 10.75 48.027344 11.882812 C 48.203125 12.292969 48.015625 12.746094 48.222656 13.160156 C 48.394531 13.496094 48.949219 13.761719 49.09375 14.078125 C 49.488281 14.9375 49.183594 15.398438 49.132812 16.226562 C 49.070312 17.238281 50.011719 21.261719 52.019531 20.265625 C 52.71875 19.917969 51.914062 18.496094 52.292969 18.003906 C 52.75 17.414062 53.851562 17.882812 54.648438 17.996094 C 54.847656 16.699219 56.25 17.425781 57.488281 17.6875 C 57.566406 17.378906 57.496094 16.945312 57.316406 16.550781 C 57.164062 16.480469 56.984375 16.425781 56.835938 16.386719 C 56.746094 15.730469 58.550781 15.980469 57.019531 14.511719 C 58.246094 14.648438 58.335938 14.253906 57.972656 13.203125 C 57.703125 12.4375 57.515625 12.621094 57.753906 12.21875 C 57.929688 11.929688 58.8125 12.574219 58.160156 11.605469 C 57.617188 11.300781 56.980469 11.253906 56.367188 10.8125 C 55.601562 10.261719 55.367188 9.578125 54.765625 9.058594 C 53.628906 8.074219 52.410156 8.4375 51.328125 8.105469 C 51.6875 9.210938 50.921875 8.820312 50.320312 8.457031 C 49.929688 8.332031 49.734375 8.273438 49.34375 8.15625 " fill-opacity="1" fill-rule="nonzero"/></g></svg>